<?xml version="1.0" encoding="utf-8"?>
<svg version="1.1" width="102.74" height="59.05" xmlns="http://www.w3.org/2000/svg" xmlns:bx="https://boxy-svg.com">
  <title>Cloud</title>
  <g transform="matrix(1, 0, 0, 1, -253.743805, -365.291687)" bx:origin="0 0">
    <g transform=" translate(257.286600,367.653500) ">
      <g transform="translate(-321.5084, 590.7607)">
        <path d="M 355.4602,-583.9703 C 338.6319,-587.2179 329.4797,-578.6561 330.9559,-570.9801 C 331.2511,-570.6849 331.2511,-570.6849 331.2511,-570.6849 C 317.9656,-568.3230 321.2132,-552.6757 327.7083,-552.6757 C 328.2988,-552.9709 328.2988,-552.9709 328.2988,-552.9709 C 326.8226,-545.5901 342.1747,-537.9140 350.7365,-541.7521 C 351.3269,-542.3425 351.3269,-542.3425 351.3269,-542.3425 C 354.5745,-535.8474 365.4981,-534.6665 376.1265,-534.3712 C 385.5739,-534.0760 391.1834,-534.9617 395.0214,-539.0950 C 395.6119,-538.7997 395.6119,-538.7997 395.6119,-538.7997 C 410.6687,-537.6188 417.4591,-547.9519 414.2115,-555.3328 C 415.0972,-555.6280 415.0972,-555.6280 415.0972,-555.6280 C 420.1162,-557.1042 420.7066,-568.9135 412.1449,-570.3896 C 412.1449,-570.9801 412.1449,-570.9801 412.1449,-570.9801 C 415.9829,-578.6561 407.1259,-586.0370 394.4309,-584.5608 C 393.5452,-584.8560 393.5452,-584.8560 393.5452,-584.8560 C 384.6882,-593.1225 359.0030,-591.6464 356.0507,-583.6751 Z " fill="#FFFFFF" stroke="#000000" stroke-width="1px" stroke-linecap="butt" stroke-linejoin="miter" stroke-miterlimit="3.5428"/>
      </g>
    </g>
  </g>
</svg>