<?xml version="1.0" encoding="utf-8"?>
<svg version="1.1" width="50.18" height="36.01" xmlns="http://www.w3.org/2000/svg">
  <title>Content Engine</title>
  <g transform="matrix(1, 0, 0, 1, -280.908417, -377.980988)">
    <g transform=" translate(280.318100,377.390600) ">
      <g transform="translate(-331.2080, 495.0408)">
        <path d="M 331.7983,-458.4367 L 376.9631,-458.4367 L 376.9631,-487.9561 L 331.7983,-487.9561 L 331.7983,-458.4367 Z " fill="#000000" stroke="#FFFFFF" stroke-width="1px" stroke-linecap="butt" stroke-linejoin="miter" stroke-miterlimit="3.5423"/>
        <path d="M 381.9814,-466.1117 L 376.9631,-458.4367 L 376.9631,-487.9561 L 381.9814,-494.4504 L 381.9814,-466.1117 Z " fill="#000000" stroke="#FFFFFF" stroke-width="1px" stroke-linecap="butt" stroke-linejoin="miter" stroke-miterlimit="3.5423"/>
        <path d="M 339.4734,-494.4504 L 381.9814,-494.4504 L 376.9631,-487.9561 L 331.7983,-487.9561 L 339.4734,-494.4504 Z " fill="#000000" stroke="#FFFFFF" stroke-width="1px" stroke-linecap="butt" stroke-linejoin="miter" stroke-miterlimit="3.5423"/>
        <path d="M 341.8349,-480.2810 L 334.4551,-480.2810 L 334.4551,-481.4618 L 341.8349,-481.4618 L 341.8349,-483.5282 L 346.2629,-480.8714 L 341.8349,-478.5099 L 341.8349,-480.2810 Z " fill="#FFFFFF" stroke-width="1px" stroke="#FFFFFF"/>
        <path d="M 341.8349,-472.9012 L 334.4551,-472.9012 L 334.4551,-474.0820 L 341.8349,-474.0820 L 341.8349,-475.8531 L 346.2629,-473.4916 L 341.8349,-470.8348 L 341.8349,-472.9012 Z " fill="#FFFFFF" stroke-width="1px" stroke="#FFFFFF"/>
        <path d="M 341.8349,-465.2261 L 334.4551,-465.2261 L 334.4551,-466.7021 L 341.8349,-466.7021 L 341.8349,-468.4733 L 346.2629,-465.8165 L 341.8349,-463.4550 L 341.8349,-465.2261 Z " fill="#FFFFFF" stroke-width="1px" stroke="#FFFFFF"/>
        <path d="M 366.9265,-473.7868 L 374.6015,-473.7868 L 374.6015,-472.6060 L 366.9265,-472.6060 L 366.9265,-470.8348 L 362.7937,-473.1964 L 366.9265,-475.5579 L 366.9265,-473.7868 Z " fill="#FFFFFF" stroke-width="1px" stroke="#FFFFFF"/>
        <path d="M 361.0226,-477.6243 C 361.0226,-476.4435 358.3658,-475.8531 354.8235,-475.8531 C 351.5764,-475.8531 348.9196,-476.4435 348.9196,-477.6243 C 348.9196,-469.9493 348.9196,-469.9493 348.9196,-469.9493 C 348.9196,-469.0637 351.5764,-468.1781 354.8235,-468.1781 C 358.3658,-468.1781 361.0226,-469.0637 361.0226,-469.9493 Z " fill="#FFFFFF" stroke="none"/>
        <path d="M 354.8235,-475.8531 C 358.3658,-475.8531 361.0226,-476.4435 361.0226,-477.6243 C 361.0226,-478.5099 358.3658,-479.3955 354.8235,-479.3955 C 351.5764,-479.3955 348.9196,-478.5099 348.9196,-477.6243 C 348.9196,-476.4435 351.5764,-475.8531 354.8235,-475.8531 Z " fill="#000000" stroke="#FFFFFF" stroke-width="0.8856" stroke-linecap="butt" stroke-linejoin="miter" stroke-miterlimit="3.5423"/>
        <path d="M 354.8235,-467.2925 C 358.3658,-467.2925 361.0226,-468.1781 361.0226,-469.0637 C 361.0226,-469.9493 358.3658,-470.8348 354.8235,-470.8348 C 351.5764,-470.8348 348.9196,-469.9493 348.9196,-469.0637 C 348.9196,-468.1781 351.5764,-467.2925 354.8235,-467.2925 Z " fill="#FFFFFF" stroke="#FFFFFF" stroke-width="0.8856" stroke-linecap="butt" stroke-linejoin="miter" stroke-miterlimit="3.5423"/>
      </g>
    </g>
  </g>
</svg>
