<?xml version="1.0" encoding="utf-8"?>
<svg version="1.1" width="70.25" height="33.06" xmlns="http://www.w3.org/2000/svg">
  <title>Fax</title>
  <g transform="matrix(1, 0, 0, 1, -270.862091, -379.471497)">
    <g transform=" translate(270.566900,379.176400) ">
      <g transform="translate(-321.4193, 493.1971)">
        <path d="M 321.7145,-459.8451 L 321.7145,-475.1929 L 368.6434,-475.1929 L 368.6434,-459.8451 L 321.7145,-459.8451 Z " fill="#000000" stroke="#FFFFFF" stroke-width="1px" stroke-linecap="butt" stroke-linejoin="miter" stroke-miterlimit="3.5418"/>
        <path d="M 321.7145,-475.1929 L 368.6434,-475.1929 L 376.0222,-482.8668 L 330.8641,-482.8668 L 321.7145,-475.1929 Z " fill="#000000" stroke="#FFFFFF" stroke-width="1px" stroke-linecap="butt" stroke-linejoin="miter" stroke-miterlimit="3.5418"/>
        <path d="M 368.6434,-459.8451 L 376.0222,-468.4044 L 376.0222,-482.8668 L 368.6434,-475.1929 L 368.6434,-459.8451 Z " fill="#000000" stroke="#FFFFFF" stroke-width="1px" stroke-linecap="butt" stroke-linejoin="miter" stroke-miterlimit="3.5418"/>
        <path d="M 334.4059,-484.6377 L 333.8156,-481.3911 L 339.7187,-481.3911 L 339.1284,-484.6377 L 334.4059,-484.6377 Z " fill="#000000" stroke="#FFFFFF" stroke-width="1px" stroke-linecap="butt" stroke-linejoin="miter" stroke-miterlimit="3.5418"/>
        <path d="M 327.3223,-479.3250 L 326.7320,-476.0784 L 332.6350,-476.0784 L 332.0447,-479.3250 L 327.3223,-479.3250 Z " fill="#000000" stroke="#FFFFFF" stroke-width="1px" stroke-linecap="butt" stroke-linejoin="miter" stroke-miterlimit="3.5418"/>
        <path d="M 335.2914,-480.5056 L 338.8332,-480.5056 L 337.9478,-482.5717 L 335.2914,-480.5056 Z " fill="#000000" stroke="#FFFFFF" stroke-width="1px" stroke-linecap="butt" stroke-linejoin="miter" stroke-miterlimit="3.5418"/>
        <path d="M 334.4059,-484.6377 C 330.5690,-484.9329 327.3223,-480.5056 327.3223,-479.3250 C 332.0447,-479.3250 332.0447,-479.3250 332.0447,-479.3250 C 331.7496,-480.5056 335.2914,-484.9329 339.1284,-484.6377 Z " fill="#000000" stroke="#FFFFFF" stroke-width="1px" stroke-linecap="butt" stroke-linejoin="miter" stroke-miterlimit="3.5418"/>
        <path d="M 339.7187,-481.3911 C 338.8332,-480.5056 338.8332,-480.5056 338.8332,-480.5056 C 337.9478,-482.5717 337.9478,-482.5717 337.9478,-482.5717 C 334.9962,-480.5056 334.9962,-480.5056 334.9962,-480.5056 C 334.7011,-477.8493 334.7011,-477.8493 334.7011,-477.8493 C 332.6350,-476.0784 332.6350,-476.0784 332.6350,-476.0784 C 332.0447,-479.3250 332.0447,-479.3250 332.0447,-479.3250 C 331.7496,-480.5056 335.2914,-484.9329 339.1284,-484.6377 Z " fill="#000000" stroke="#FFFFFF" stroke-width="1px" stroke-linecap="butt" stroke-linejoin="miter" stroke-miterlimit="3.5418"/>
        <path d="M 345.6217,-492.9020 L 337.9478,-485.5232 L 339.1284,-485.5232 L 346.5071,-492.9020 L 345.6217,-492.9020 Z " fill="#000000" stroke="#FFFFFF" stroke-width="1px" stroke-linecap="butt" stroke-linejoin="miter" stroke-miterlimit="3.5418"/>
        <path d="M 353.0004,-482.8668 L 345.6217,-475.1929 L 339.1284,-485.5232 L 346.5071,-492.9020 L 353.0004,-482.8668 Z " fill="#000000" stroke="#FFFFFF" stroke-width="1px" stroke-linecap="butt" stroke-linejoin="miter" stroke-miterlimit="3.5418"/>
        <path d="M 344.4411,-475.1929 L 337.9478,-485.5232 L 339.1284,-485.5232 L 345.6217,-475.1929 L 344.4411,-475.1929 Z " fill="#000000" stroke="#FFFFFF" stroke-width="1px" stroke-linecap="butt" stroke-linejoin="miter" stroke-miterlimit="3.5418"/>
        <path d="M 391.9604,-480.5056 L 384.2864,-472.8317 L 368.6434,-467.2238 L 376.0222,-474.8978 L 391.9604,-480.5056 Z " fill="#000000" stroke="#FFFFFF" stroke-width="1px" stroke-linecap="butt" stroke-linejoin="miter" stroke-miterlimit="3.5418"/>
        <path d="M 391.9604,-479.0299 L 384.5816,-471.3560 L 384.2864,-472.8317 L 391.9604,-480.5056 L 391.9604,-479.0299 Z " fill="#000000" stroke="#FFFFFF" stroke-width="1px" stroke-linecap="butt" stroke-linejoin="miter" stroke-miterlimit="3.5418"/>
        <path d="M 368.6434,-467.2238 L 368.6434,-466.3384 L 384.5816,-471.3560 L 384.5816,-472.8317 L 368.6434,-467.2238 Z " fill="#000000" stroke="#FFFFFF" stroke-width="1px" stroke-linecap="butt" stroke-linejoin="miter" stroke-miterlimit="3.5418"/>
        <path d="M 345.3265,-491.1311 L 351.2295,-481.3911 Z " fill="#000000" stroke-width="1px" stroke="#000000"/>
        <path d="M 345.3265,-491.1311 L 351.2295,-481.3911 " stroke="#FFFFFF" stroke-width="1px" stroke-linecap="round" stroke-linejoin="miter" stroke-miterlimit="3.5418" fill="none"/>
        <path d="M 343.8508,-489.6553 L 349.7538,-479.9153 Z " fill="#000000" stroke-width="1px" stroke="#000000"/>
        <path d="M 343.8508,-489.6553 L 349.7538,-479.9153 " stroke="#FFFFFF" stroke-width="1px" stroke-linecap="round" stroke-linejoin="miter" stroke-miterlimit="3.5418" fill="none"/>
        <path d="M 342.3750,-488.1796 L 348.2780,-478.4396 Z " fill="#000000" stroke-width="1px" stroke="#000000"/>
        <path d="M 342.3750,-488.1796 L 348.2780,-478.4396 " stroke="#FFFFFF" stroke-width="1px" stroke-linecap="round" stroke-linejoin="miter" stroke-miterlimit="3.5418" fill="none"/>
        <path d="M 340.6041,-486.7038 L 346.8023,-476.9638 Z " fill="#000000" stroke-width="1px" stroke="#000000"/>
        <path d="M 340.6041,-486.7038 L 346.8023,-476.9638 " stroke="#FFFFFF" stroke-width="1px" stroke-linecap="round" stroke-linejoin="miter" stroke-miterlimit="3.5418" fill="none"/>
        <path d="M 367.7580,-478.4396 L 365.6919,-478.4396 L 366.8725,-479.6202 Z " fill="#000000" stroke-width="1px" stroke="#000000"/>
        <path d="M 367.7580,-478.4396 L 365.6919,-478.4396 L 366.8725,-479.6202 " stroke="#FFFFFF" stroke-width="1px" stroke-linecap="butt" stroke-linejoin="miter" stroke-miterlimit="3.5418" fill="none"/>
        <path d="M 370.7095,-478.4396 L 368.6434,-478.4396 L 369.5289,-479.6202 Z " fill="#000000" stroke-width="1px" stroke="#000000"/>
        <path d="M 370.7095,-478.4396 L 368.6434,-478.4396 L 369.5289,-479.6202 " stroke="#FFFFFF" stroke-width="1px" stroke-linecap="butt" stroke-linejoin="miter" stroke-miterlimit="3.5418" fill="none"/>
        <path d="M 365.6919,-476.3735 L 363.6259,-476.3735 L 364.8065,-477.2590 Z " fill="#000000" stroke-width="1px" stroke="#000000"/>
        <path d="M 365.6919,-476.3735 L 363.6259,-476.3735 L 364.8065,-477.2590 " stroke="#FFFFFF" stroke-width="1px" stroke-linecap="butt" stroke-linejoin="miter" stroke-miterlimit="3.5418" fill="none"/>
        <path d="M 368.3483,-476.3735 L 366.2822,-476.3735 L 367.4628,-477.2590 Z " fill="#000000" stroke-width="1px" stroke="#000000"/>
        <path d="M 368.3483,-476.3735 L 366.2822,-476.3735 L 367.4628,-477.2590 " stroke="#FFFFFF" stroke-width="1px" stroke-linecap="butt" stroke-linejoin="miter" stroke-miterlimit="3.5418" fill="none"/>
        <path d="M 365.1016,-478.4396 L 363.0356,-478.4396 L 364.2162,-479.6202 Z " fill="#000000" stroke-width="1px" stroke="#000000"/>
        <path d="M 365.1016,-478.4396 L 363.0356,-478.4396 L 364.2162,-479.6202 " stroke="#FFFFFF" stroke-width="1px" stroke-linecap="butt" stroke-linejoin="miter" stroke-miterlimit="3.5418" fill="none"/>
        <path d="M 363.0356,-476.3735 L 360.9695,-476.3735 L 362.1501,-477.2590 Z " fill="#000000" stroke-width="1px" stroke="#000000"/>
        <path d="M 363.0356,-476.3735 L 360.9695,-476.3735 L 362.1501,-477.2590 " stroke="#FFFFFF" stroke-width="1px" stroke-linecap="butt" stroke-linejoin="miter" stroke-miterlimit="3.5418" fill="none"/>
        <path d="M 370.1192,-480.5056 L 368.0531,-480.5056 L 369.2337,-481.6862 Z " fill="#000000" stroke-width="1px" stroke="#000000"/>
        <path d="M 370.1192,-480.5056 L 368.0531,-480.5056 L 369.2337,-481.6862 " stroke="#FFFFFF" stroke-width="1px" stroke-linecap="butt" stroke-linejoin="miter" stroke-miterlimit="3.5418" fill="none"/>
        <path d="M 372.7756,-480.5056 L 370.7095,-480.5056 L 371.8901,-481.6862 Z " fill="#000000" stroke-width="1px" stroke="#000000"/>
        <path d="M 372.7756,-480.5056 L 370.7095,-480.5056 L 371.8901,-481.6862 " stroke="#FFFFFF" stroke-width="1px" stroke-linecap="butt" stroke-linejoin="miter" stroke-miterlimit="3.5418" fill="none"/>
        <path d="M 367.4628,-480.5056 L 365.3968,-480.5056 L 366.2822,-481.6862 Z " fill="#000000" stroke-width="1px" stroke="#000000"/>
        <path d="M 367.4628,-480.5056 L 365.3968,-480.5056 L 366.2822,-481.6862 " stroke="#FFFFFF" stroke-width="1px" stroke-linecap="butt" stroke-linejoin="miter" stroke-miterlimit="3.5418" fill="none"/>
        <path d="M 362.4453,-478.4396 L 360.3792,-478.4396 L 361.5598,-479.6202 Z " fill="#000000" stroke-width="1px" stroke="#000000"/>
        <path d="M 362.4453,-478.4396 L 360.3792,-478.4396 L 361.5598,-479.6202 " stroke="#FFFFFF" stroke-width="1px" stroke-linecap="butt" stroke-linejoin="miter" stroke-miterlimit="3.5418" fill="none"/>
        <path d="M 360.3792,-476.3735 L 358.3132,-476.3735 L 359.4938,-477.2590 Z " fill="#000000" stroke-width="1px" stroke="#000000"/>
        <path d="M 360.3792,-476.3735 L 358.3132,-476.3735 L 359.4938,-477.2590 " stroke="#FFFFFF" stroke-width="1px" stroke-linecap="butt" stroke-linejoin="miter" stroke-miterlimit="3.5418" fill="none"/>
        <path d="M 364.8065,-480.5056 L 362.7404,-480.5056 L 363.6259,-481.6862 Z " fill="#000000" stroke-width="1px" stroke="#000000"/>
        <path d="M 364.8065,-480.5056 L 362.7404,-480.5056 L 363.6259,-481.6862 " stroke="#FFFFFF" stroke-width="1px" stroke-linecap="butt" stroke-linejoin="miter" stroke-miterlimit="3.5418" fill="none"/>
        <path d="M 353.8859,-481.6862 L 360.0841,-481.6862 L 354.4762,-476.3735 L 348.2780,-476.3735 L 353.8859,-481.6862 Z " fill="#000000" stroke="#FFFFFF" stroke-width="1px" stroke-linecap="butt" stroke-linejoin="miter" stroke-miterlimit="3.5418"/>
      </g>
    </g>
  </g>
</svg>
