<?xml version="1.0" encoding="utf-8"?>
<svg version="1.1" width="18.875" height="41.400002" id="svg2" xmlns="http://www.w3.org/2000/svg">
  <title>Firewall</title>
  <g transform="matrix(1.25,0,0,-1.25,0,41.4)" id="g10">
    <g transform="scale(0.1,0.1)" id="g12">
      <path d="m 5.75391,5.64062 79.2656,0 0,264.832 -79.2656,0 0,-264.832 z" id="path14" style="fill:#000000;fill-opacity:1;fill-rule:nonzero;stroke:none"/>
      <path d="m 5.75391,5.64062 79.2656,0 0,264.832 -79.2656,0 0,-264.832 z" id="path16" style="fill:none;stroke:#ffffff;stroke-width:4;stroke-linecap:butt;stroke-linejoin:miter;stroke-miterlimit:4;stroke-opacity:1;stroke-dasharray:none"/>
      <path d="m 85.0195,270.473 -79.26559,0 70.99999,56.152 69.1601,0 -60.8945,-56.152" id="path18" style="fill:#000000;fill-opacity:1;fill-rule:nonzero;stroke:none"/>
      <path d="m 85.0195,270.473 -79.26559,0 70.99999,56.152 69.1601,0 -60.8945,-56.152 z" id="path20" style="fill:none;stroke:#ffffff;stroke-width:4;stroke-linecap:butt;stroke-linejoin:miter;stroke-miterlimit:4;stroke-opacity:1;stroke-dasharray:none"/>
      <path d="m 145.914,326.625 0,-252.7031 -60.8945,-68.65237 0,265.20347 60.8945,56.152" id="path22" style="fill:#000000;fill-opacity:1;fill-rule:nonzero;stroke:none"/>
      <path d="m 145.914,326.625 0,-252.7031 -60.8945,-68.65237 0,265.20347 60.8945,56.152 z" id="path24" style="fill:none;stroke:#ffffff;stroke-width:4;stroke-linecap:butt;stroke-linejoin:miter;stroke-miterlimit:4;stroke-opacity:1;stroke-dasharray:none"/>
      <path d="m 127.18,267.348 0,42.5" id="path26" style="fill:#000000;fill-opacity:1;fill-rule:nonzero;stroke:none"/>
      <path d="m 127.18,267.348 0,42.5" id="path28" style="fill:none;stroke:#ffffff;stroke-width:4;stroke-linecap:butt;stroke-linejoin:miter;stroke-miterlimit:4;stroke-opacity:1;stroke-dasharray:none"/>
      <path d="m 127.18,181.309 0,42.5" id="path30" style="fill:#000000;fill-opacity:1;fill-rule:nonzero;stroke:none"/>
      <path d="m 127.18,181.309 0,42.5" id="path32" style="fill:none;stroke:#ffffff;stroke-width:4;stroke-linecap:butt;stroke-linejoin:miter;stroke-miterlimit:4;stroke-opacity:1;stroke-dasharray:none"/>
      <path d="m 127.18,95.2695 0,42.5005" id="path34" style="fill:#000000;fill-opacity:1;fill-rule:nonzero;stroke:none"/>
      <path d="m 127.18,95.2695 0,42.5005" id="path36" style="fill:none;stroke:#ffffff;stroke-width:4;stroke-linecap:butt;stroke-linejoin:miter;stroke-miterlimit:4;stroke-opacity:1;stroke-dasharray:none"/>
      <path d="M 145.914,116.039 85.0195,49.4688" id="path38" style="fill:#000000;fill-opacity:1;fill-rule:nonzero;stroke:none"/>
      <path d="M 145.914,116.039 85.0195,49.4688" id="path40" style="fill:none;stroke:#ffffff;stroke-width:4;stroke-linecap:butt;stroke-linejoin:miter;stroke-miterlimit:4;stroke-opacity:1;stroke-dasharray:none"/>
      <path d="M 145.914,158.16 85.0195,93.6719" id="path42" style="fill:#000000;fill-opacity:1;fill-rule:nonzero;stroke:none"/>
      <path d="M 145.914,158.16 85.0195,93.6719" id="path44" style="fill:none;stroke:#ffffff;stroke-width:4;stroke-linecap:butt;stroke-linejoin:miter;stroke-miterlimit:4;stroke-opacity:1;stroke-dasharray:none"/>
      <path d="M 145.914,200.273 85.0195,137.871" id="path46" style="fill:#000000;fill-opacity:1;fill-rule:nonzero;stroke:none"/>
      <path d="M 145.914,200.273 85.0195,137.871" id="path48" style="fill:none;stroke:#ffffff;stroke-width:4;stroke-linecap:butt;stroke-linejoin:miter;stroke-miterlimit:4;stroke-opacity:1;stroke-dasharray:none"/>
      <path d="M 145.914,242.395 85.0195,182.07" id="path50" style="fill:#000000;fill-opacity:1;fill-rule:nonzero;stroke:none"/>
      <path d="M 145.914,242.395 85.0195,182.07" id="path52" style="fill:none;stroke:#ffffff;stroke-width:4;stroke-linecap:butt;stroke-linejoin:miter;stroke-miterlimit:4;stroke-opacity:1;stroke-dasharray:none"/>
      <path d="M 145.914,284.512 85.0195,226.27" id="path54" style="fill:#000000;fill-opacity:1;fill-rule:nonzero;stroke:none"/>
      <path d="M 145.914,284.512 85.0195,226.27" id="path56" style="fill:none;stroke:#ffffff;stroke-width:4;stroke-linecap:butt;stroke-linejoin:miter;stroke-miterlimit:4;stroke-opacity:1;stroke-dasharray:none"/>
      <path d="m 85.0195,270.473 60.8945,56.152" id="path58" style="fill:#000000;fill-opacity:1;fill-rule:nonzero;stroke:none"/>
      <path d="m 85.0195,270.473 60.8945,56.152" id="path60" style="fill:none;stroke:#ffffff;stroke-width:4;stroke-linecap:butt;stroke-linejoin:miter;stroke-miterlimit:4;stroke-opacity:1;stroke-dasharray:none"/>
      <path d="m 85.0195,49.7812 -79.26559,0" id="path62" style="fill:#000000;fill-opacity:1;fill-rule:nonzero;stroke:none"/>
      <path d="m 85.0195,49.7812 -79.26559,0" id="path64" style="fill:none;stroke:#ffffff;stroke-width:4;stroke-linecap:butt;stroke-linejoin:miter;stroke-miterlimit:4;stroke-opacity:1;stroke-dasharray:none"/>
      <path d="m 85.0195,93.9219 -79.26559,0" id="path66" style="fill:#000000;fill-opacity:1;fill-rule:nonzero;stroke:none"/>
      <path d="m 85.0195,93.9219 -79.26559,0" id="path68" style="fill:none;stroke:#ffffff;stroke-width:4;stroke-linecap:butt;stroke-linejoin:miter;stroke-miterlimit:4;stroke-opacity:1;stroke-dasharray:none"/>
      <path d="m 85.0195,138.059 -79.26559,0" id="path70" style="fill:#000000;fill-opacity:1;fill-rule:nonzero;stroke:none"/>
      <path d="m 85.0195,138.059 -79.26559,0" id="path72" style="fill:none;stroke:#ffffff;stroke-width:4;stroke-linecap:butt;stroke-linejoin:miter;stroke-miterlimit:4;stroke-opacity:1;stroke-dasharray:none"/>
      <path d="m 85.0195,182.199 -79.26559,0" id="path74" style="fill:#000000;fill-opacity:1;fill-rule:nonzero;stroke:none"/>
      <path d="m 85.0195,182.199 -79.26559,0" id="path76" style="fill:none;stroke:#ffffff;stroke-width:4;stroke-linecap:butt;stroke-linejoin:miter;stroke-miterlimit:4;stroke-opacity:1;stroke-dasharray:none"/>
      <path d="m 85.0195,226.332 -79.26559,0" id="path78" style="fill:#000000;fill-opacity:1;fill-rule:nonzero;stroke:none"/>
      <path d="m 85.0195,226.332 -79.26559,0" id="path80" style="fill:none;stroke:#ffffff;stroke-width:4;stroke-linecap:butt;stroke-linejoin:miter;stroke-miterlimit:4;stroke-opacity:1;stroke-dasharray:none"/>
      <path d="m 106.555,29.6445 0,42.7032" id="path82" style="fill:#000000;fill-opacity:1;fill-rule:nonzero;stroke:none"/>
      <path d="m 106.555,29.6445 0,42.7032" id="path84" style="fill:none;stroke:#ffffff;stroke-width:4;stroke-linecap:butt;stroke-linejoin:miter;stroke-miterlimit:4;stroke-opacity:1;stroke-dasharray:none"/>
      <path d="m 106.555,116.934 0,42.711" id="path86" style="fill:#000000;fill-opacity:1;fill-rule:nonzero;stroke:none"/>
      <path d="m 106.555,116.934 0,42.711" id="path88" style="fill:none;stroke:#ffffff;stroke-width:4;stroke-linecap:butt;stroke-linejoin:miter;stroke-miterlimit:4;stroke-opacity:1;stroke-dasharray:none"/>
      <path d="m 106.555,203.395 0,42.703" id="path90" style="fill:#000000;fill-opacity:1;fill-rule:nonzero;stroke:none"/>
      <path d="m 106.555,203.395 0,42.703" id="path92" style="fill:none;stroke:#ffffff;stroke-width:4;stroke-linecap:butt;stroke-linejoin:miter;stroke-miterlimit:4;stroke-opacity:1;stroke-dasharray:none"/>
    </g>
  </g>
</svg>