<?xml version="1.0" encoding="utf-8"?>
<svg version="1.1" width="44.28" height="53.14" xmlns="http://www.w3.org/2000/svg">
  <title>Microphone</title>
  <g transform="matrix(1, 0, 0, 1, -283.4151, -369.130035)">
    <g transform=" translate(284.300800,369.425200) ">
      <g transform="translate(-405.6422, 617.3201)">
        <path d="M 416.8608,-609.9394 C 426.6033,-592.5210 426.6033,-592.5210 426.6033,-592.5210 C 427.7842,-590.1592 426.8985,-586.9117 424.5367,-585.7308 C 424.5367,-585.7308 424.5367,-585.7308 424.5367,-585.7308 C 422.1749,-584.2547 419.2226,-585.1403 417.7465,-587.5021 C 408.2992,-604.6253 408.2992,-604.6253 408.2992,-604.6253 " fill="#000000" stroke="none"/>
        <path d="M 416.8608,-609.9394 C 426.6033,-592.5210 426.6033,-592.5210 426.6033,-592.5210 C 427.7842,-590.1592 426.8985,-586.9117 424.5367,-585.7308 C 424.5367,-585.7308 424.5367,-585.7308 424.5367,-585.7308 C 422.1749,-584.2547 419.2226,-585.1403 417.7465,-587.5021 C 408.2992,-604.6253 408.2992,-604.6253 408.2992,-604.6253 " stroke="#FFFFFF" stroke-width="1px" stroke-linecap="butt" stroke-linejoin="miter" stroke-miterlimit="3.5427" fill="none"/>
        <path d="M 416.8608,-609.9394 C 426.6033,-592.5210 426.6033,-592.5210 426.6033,-592.5210 C 427.7842,-590.1592 426.8985,-586.9117 424.5367,-585.7308 C 424.5367,-585.7308 424.5367,-585.7308 424.5367,-585.7308 C 422.1749,-584.2547 419.2226,-585.1403 417.7465,-587.5021 C 408.2992,-604.6253 408.2992,-604.6253 408.2992,-604.6253 " fill="#000000" stroke="none"/>
        <path d="M 416.8608,-609.9394 C 426.6033,-592.5210 426.6033,-592.5210 426.6033,-592.5210 C 427.7842,-590.1592 426.8985,-586.9117 424.5367,-585.7308 C 424.5367,-585.7308 424.5367,-585.7308 424.5367,-585.7308 C 422.1749,-584.2547 419.2226,-585.1403 417.7465,-587.5021 C 408.2992,-604.6253 408.2992,-604.6253 408.2992,-604.6253 " stroke="#FFFFFF" stroke-width="1px" stroke-linecap="butt" stroke-linejoin="miter" stroke-miterlimit="3.5427" fill="none"/>
        <path d="M 419.8131,-564.4744 C 412.4324,-564.4744 406.5279,-566.2458 406.5279,-568.6076 C 406.5279,-570.9694 412.4324,-572.7408 419.8131,-572.7408 C 427.1938,-572.7408 433.0983,-570.9694 433.0983,-568.6076 C 433.0983,-566.2458 427.1938,-564.4744 419.8131,-564.4744 Z " fill="#000000" stroke="#FFFFFF" stroke-width="1px" stroke-linecap="butt" stroke-linejoin="miter" stroke-miterlimit="3.5427"/>
        <path d="M 419.8131,-568.6076 L 419.8131,-568.6076 Z " fill="#666666" stroke-width="1px" stroke="#666666"/>
        <path d="M 419.8131,-568.6076 L 419.8131,-568.6076 " stroke="none" stroke-width="0.0" fill="none"/>
        <path d="M 419.8131,-569.7885 C 416.2704,-569.7885 413.3181,-570.6742 413.3181,-571.8551 C 413.3181,-573.0360 416.2704,-573.9217 419.8131,-573.9217 C 423.6510,-573.9217 426.6033,-573.0360 426.6033,-571.8551 C 426.6033,-570.6742 423.6510,-569.7885 419.8131,-569.7885 Z " fill="#000000" stroke="#FFFFFF" stroke-width="1px" stroke-linecap="butt" stroke-linejoin="miter" stroke-miterlimit="3.5427"/>
        <path d="M 419.8131,-571.8551 L 419.8131,-571.8551 Z " fill="#666666" stroke-width="1px" stroke="#666666"/>
        <path d="M 419.8131,-571.8551 L 419.8131,-571.8551 " stroke="none" stroke-width="0.0" fill="none"/>
        <path d="M 416.8608,-609.6442 C 418.3370,-607.2824 416.8608,-605.2158 414.4990,-604.0349 C 414.4990,-604.0349 414.4990,-604.0349 414.4990,-604.0349 C 412.1372,-602.5587 409.4801,-602.2635 408.2992,-604.6253 C 406.5279,-607.8728 406.5279,-607.8728 406.5279,-607.8728 C 406.2326,-608.4633 406.2326,-608.4633 406.2326,-608.4633 C 404.7565,-610.8251 405.3470,-614.9583 407.7088,-616.1392 C 407.7088,-616.1392 407.7088,-616.1392 407.7088,-616.1392 C 410.0706,-617.6153 413.3181,-616.1392 414.7942,-613.4821 C 415.0895,-613.1869 415.0895,-613.1869 415.0895,-613.1869 Z " fill="#000000" stroke="#FFFFFF" stroke-width="1px" stroke-linecap="butt" stroke-linejoin="miter" stroke-miterlimit="3.5427"/>
        <path d="M 416.8608,-609.6442 C 418.3370,-607.2824 416.8608,-605.2158 414.4990,-604.0349 C 414.4990,-604.0349 414.4990,-604.0349 414.4990,-604.0349 C 412.1372,-602.5587 409.4801,-602.2635 408.2992,-604.6253 C 406.5279,-607.8728 406.5279,-607.8728 406.5279,-607.8728 C 406.2326,-608.4633 406.2326,-608.4633 406.2326,-608.4633 C 404.7565,-610.8251 405.3470,-614.9583 407.7088,-616.1392 C 407.7088,-616.1392 407.7088,-616.1392 407.7088,-616.1392 C 410.0706,-617.6153 413.3181,-616.1392 414.7942,-613.4821 C 415.0895,-613.1869 415.0895,-613.1869 415.0895,-613.1869 Z " fill="#000000" stroke="#FFFFFF" stroke-width="1px" stroke-linecap="butt" stroke-linejoin="miter" stroke-miterlimit="3.5427"/>
        <path d="M 419.8131,-570.9694 C 418.9274,-570.9694 418.3370,-571.5599 418.3370,-572.4456 C 418.3370,-596.0637 418.3370,-596.0637 418.3370,-596.0637 C 418.3370,-596.9494 418.9274,-597.5399 419.8131,-597.5399 C 419.8131,-597.5399 419.8131,-597.5399 419.8131,-597.5399 C 420.6988,-597.5399 421.2892,-596.9494 421.2892,-596.0637 C 421.2892,-572.4456 421.2892,-572.4456 421.2892,-572.4456 C 421.2892,-571.5599 420.6988,-570.9694 419.8131,-570.9694 Z " fill="#000000" stroke="#FFFFFF" stroke-width="1px" stroke-linecap="butt" stroke-linejoin="miter" stroke-miterlimit="3.5427"/>
        <path d="M 419.8131,-582.1881 L 419.8131,-582.1881 Z " fill="#000000" stroke-width="1px" stroke="#000000"/>
        <path d="M 419.8131,-582.1881 L 419.8131,-582.1881 " stroke="none" stroke-width="0.0" fill="none"/>
        <path d="M 419.5179,-595.1781 L 419.5179,-595.1781 Z " fill="#4D4D4D" stroke-width="1px" stroke="#4D4D4D"/>
        <path d="M 419.5179,-595.1781 L 419.5179,-595.1781 " stroke="none" stroke-width="0.0" fill="none"/>
        <path d="M 420.1083,-593.4067 C 420.9940,-593.4067 421.8797,-593.9971 421.8797,-594.8828 C 421.8797,-595.7685 420.9940,-596.6542 420.1083,-596.6542 C 419.2226,-596.6542 418.6322,-595.7685 418.6322,-594.8828 C 418.6322,-593.9971 419.2226,-593.4067 420.1083,-593.4067 Z " fill="#000000" stroke="#FFFFFF" stroke-width="1px" stroke-linecap="butt" stroke-linejoin="miter" stroke-miterlimit="3.5427"/>
        <path d="M 420.1083,-594.8828 L 420.1083,-594.8828 Z " fill="#CCCCCC" stroke-width="1px" stroke="#CCCCCC"/>
        <path d="M 420.1083,-594.8828 L 420.1083,-594.8828 " stroke="none" stroke-width="0.0" fill="none"/>
        <path d="M 417.1560,-609.6442 C 418.3370,-606.9871 417.1560,-605.2158 414.4990,-603.7396 C 414.4990,-603.7396 414.4990,-603.7396 414.4990,-603.7396 C 412.1372,-602.5587 409.7754,-602.2635 408.2992,-604.6253 " stroke="#FFFFFF" stroke-width="1px" stroke-linecap="butt" stroke-linejoin="miter" stroke-miterlimit="3.5427" fill="none"/>
        <path d="M 416.2704,-610.8251 C 417.7465,-608.4633 416.2704,-606.3967 413.9085,-605.2158 C 413.9085,-605.2158 413.9085,-605.2158 413.9085,-605.2158 C 411.5467,-603.7396 408.8897,-603.4444 407.7088,-605.8062 " stroke="#FFFFFF" stroke-width="1px" stroke-linecap="butt" stroke-linejoin="miter" stroke-miterlimit="3.5427" fill="none"/>
        <path d="M 415.6799,-611.7108 C 416.8608,-609.3490 415.3847,-607.5776 413.3181,-606.1015 C 413.3181,-606.1015 413.3181,-606.1015 413.3181,-606.1015 C 410.9563,-604.9206 408.5945,-604.6253 407.1183,-606.9871 " stroke="#FFFFFF" stroke-width="1px" stroke-linecap="butt" stroke-linejoin="miter" stroke-miterlimit="3.5427" fill="none"/>
        <path d="M 415.0895,-612.5965 C 416.2704,-610.5299 414.7942,-608.7585 412.4324,-607.2824 C 412.4324,-607.2824 412.4324,-607.2824 412.4324,-607.2824 C 410.0706,-606.1015 407.7088,-605.8062 406.5279,-608.1681 " stroke="#FFFFFF" stroke-width="1px" stroke-linecap="butt" stroke-linejoin="miter" stroke-miterlimit="3.5427" fill="none"/>
        <path d="M 414.4990,-613.7774 C 415.6799,-611.7108 414.2038,-609.9394 411.8420,-608.4633 C 411.8420,-608.4633 411.8420,-608.4633 411.8420,-608.4633 C 409.4801,-607.2824 407.1183,-606.9871 405.9374,-609.3490 " stroke="#FFFFFF" stroke-width="1px" stroke-linecap="butt" stroke-linejoin="miter" stroke-miterlimit="3.5427" fill="none"/>
        <path d="M 413.6133,-614.9583 C 414.7942,-612.5965 413.6133,-610.8251 411.2515,-609.6442 C 411.2515,-609.6442 411.2515,-609.6442 411.2515,-609.6442 C 409.1849,-608.4633 406.8231,-608.1681 405.6422,-610.2346 " stroke="#FFFFFF" stroke-width="1px" stroke-linecap="butt" stroke-linejoin="miter" stroke-miterlimit="3.5427" fill="none"/>
        <path d="M 412.7276,-615.5487 C 413.6133,-613.4821 412.4324,-612.0060 410.6611,-611.1203 C 410.6611,-611.1203 410.6611,-611.1203 410.6611,-611.1203 C 408.5945,-609.9394 406.8231,-609.6442 405.6422,-611.7108 " stroke="#FFFFFF" stroke-width="1px" stroke-linecap="butt" stroke-linejoin="miter" stroke-miterlimit="3.5427" fill="none"/>
        <path d="M 411.5467,-616.1392 C 412.4324,-614.3678 411.5467,-613.1869 409.7754,-612.3012 C 409.7754,-612.3012 409.7754,-612.3012 409.7754,-612.3012 C 408.2992,-611.4156 406.5279,-611.1203 405.6422,-612.8917 " stroke="#FFFFFF" stroke-width="1px" stroke-linecap="butt" stroke-linejoin="miter" stroke-miterlimit="3.5427" fill="none"/>
        <path d="M 424.8320,-586.6165 C 425.7176,-582.4833 425.7176,-576.2835 430.1460,-574.5122 C 431.3270,-573.9217 432.8031,-574.2169 434.2792,-573.6265 C 437.2315,-572.7408 438.4124,-569.4933 441.0695,-567.4267 C 443.4313,-565.6553 446.3835,-565.6553 449.0406,-566.8362 " stroke="#000000" stroke-width="1px" stroke-linecap="butt" stroke-linejoin="miter" stroke-miterlimit="3.5427" fill="none"/>
      </g>
    </g>
  </g>
</svg>
