<?xml version="1.0" encoding="utf-8"?>
<svg version="1.1" width="37.5" height="37.5" id="svg2" xmlns="http://www.w3.org/2000/svg">
  <title>PBX</title>
  <defs id="defs6">
    <clipPath id="clipPath18">
      <path d="M 0,0 30,0 30,30 0,30 0,0 z" id="path20"/>
    </clipPath>
  </defs>
  <g transform="matrix(1.25,0,0,-1.25,0,37.5)" id="g10">
    <g id="g12"/>
    <g id="g14">
      <g clip-path="url(#clipPath18)" id="g16">
        <path d="m 1.542,1.002 22.68,0 0,23.074 -22.68,0 0,-23.074 z" id="path22" style="fill:#000000;fill-opacity:1;fill-rule:nonzero;stroke:#ffffff;stroke-width:0.40000001;stroke-linecap:butt;stroke-linejoin:miter;stroke-miterlimit:4;stroke-opacity:1;stroke-dasharray:none"/>
        <path d="m 20.451,15.884 0,-5.047 3.041,2.425 -3.041,2.622" id="path24" style="fill:#000000;fill-opacity:1;fill-rule:nonzero;stroke:none"/>
        <path d="m 11.083,20.105 5.047,0 -2.424,3.041 -2.623,-3.041" id="path26" style="fill:#000000;fill-opacity:1;fill-rule:nonzero;stroke:none"/>
        <path d="m 16.221,5.517 -5.047,0 2.448,-3.041 2.599,3.041" id="path28" style="fill:#000000;fill-opacity:1;fill-rule:nonzero;stroke:none"/>
        <path d="m 6.282,10.241 0,5.048 -3.041,-2.425 3.041,-2.623" id="path30" style="fill:#000000;fill-opacity:1;fill-rule:nonzero;stroke:none"/>
        <path d="m 19.926,15.359 0,-5.047 3.041,2.424 -3.041,2.623 z" id="path32" style="fill:#ffffff;fill-opacity:1;fill-rule:nonzero;stroke:#ffffff;stroke-width:0.2;stroke-linecap:butt;stroke-linejoin:miter;stroke-miterlimit:4;stroke-opacity:1;stroke-dasharray:none"/>
        <path d="m 10.558,19.58 5.047,0 -2.424,3.041 -2.623,-3.041 z" id="path34" style="fill:#ffffff;fill-opacity:1;fill-rule:nonzero;stroke:#ffffff;stroke-width:0.2;stroke-linecap:butt;stroke-linejoin:miter;stroke-miterlimit:4;stroke-opacity:1;stroke-dasharray:none"/>
        <path d="m 15.696,4.992 -5.047,0 2.448,-3.041 2.599,3.041 z" id="path36" style="fill:#ffffff;fill-opacity:1;fill-rule:nonzero;stroke:#ffffff;stroke-width:0.2;stroke-linecap:butt;stroke-linejoin:miter;stroke-miterlimit:4;stroke-opacity:1;stroke-dasharray:none"/>
        <path d="m 5.691,9.716 0,5.048 L 2.65,12.339 5.691,9.716 z" id="path38" style="fill:#ffffff;fill-opacity:1;fill-rule:nonzero;stroke:#ffffff;stroke-width:0.2;stroke-linecap:butt;stroke-linejoin:miter;stroke-miterlimit:4;stroke-opacity:1;stroke-dasharray:none"/>
        <path d="m 24.143,24.102 -22.575,0 5.722,4.567 21.578,0 0,-0.026 -0.066,10e-4 -4.606,-4.529 0,-0.144 -0.053,0.131 z" id="path40" style="fill:#000000;fill-opacity:1;fill-rule:nonzero;stroke:#ffffff;stroke-width:0.40000001;stroke-linecap:butt;stroke-linejoin:miter;stroke-miterlimit:4;stroke-opacity:1;stroke-dasharray:none"/>
        <path d="m 28.816,5.609 0,23.035 -4.594,-4.594 0,-23.034 4.594,4.593 z" id="path42" style="fill:#000000;fill-opacity:1;fill-rule:nonzero;stroke:#ffffff;stroke-width:0.40000001;stroke-linecap:butt;stroke-linejoin:miter;stroke-miterlimit:4;stroke-opacity:1;stroke-dasharray:none"/>
        <path d="m 16.735,15.72 0,-1.92 2.462,0 0,1.32 c 0,2.156 -2.727,3.303 -6.092,3.303 l 0.097,0 C 9.837,18.423 7.11,17.276 7.11,15.12 l 0,-1.32 2.462,0 0,1.92 c 3.251,4.255 7.163,0 7.163,0" id="path44" style="fill:#000000;fill-opacity:1;fill-rule:nonzero;stroke:none"/>
        <path d="m 13.579,16.38 2.13,0 0,-2.4 2.372,-1.98 0,-4.74 -9.874,0 0,4.74 2.372,1.98 0,2.4 3,0" id="path46" style="fill:#000000;fill-opacity:1;fill-rule:nonzero;stroke:none"/>
        <path d="m 16.723,15.18 0,-1.92 2.462,0 0,1.32 c 0,2.156 -2.728,3.303 -6.093,3.303 l 0.098,0 c -3.365,0 -6.093,-1.147 -6.093,-3.303 l 0,-1.32 2.462,0 0,1.92 c 3.251,4.255 7.164,0 7.164,0" id="path48" style="fill:#ffffff;fill-opacity:1;fill-rule:nonzero;stroke:none"/>
        <path d="m 13.567,15.84 2.129,0 0,-2.4 2.372,-1.98 0,-4.74 -9.874,0 0,4.74 2.372,1.98 0,2.4 3.001,0" id="path50" style="fill:#ffffff;fill-opacity:1;fill-rule:nonzero;stroke:none"/>
      </g>
    </g>
  </g>
</svg>