<?xml version="1.0" encoding="utf-8"?>
<svg version="1.1" width="47.5" height="32.5" id="svg2" xmlns="http://www.w3.org/2000/svg">
  <title>PIX</title>
  <defs id="defs6">
    <clipPath id="clipPath18">
      <path d="M 0,0 38,0 38,26 0,26 0,0 z" id="path20"/>
    </clipPath>
  </defs>
  <g transform="matrix(1.25,0,0,-1.25,0,32.5)" id="g10">
    <g id="g12"/>
    <g id="g14">
      <g clip-path="url(#clipPath18)" id="g16">
        <path d="m 37.047,18.211 c 0,-3.879 -8.086,-7.023 -18.06,-7.023 -9.975,0 -18.061,3.144 -18.061,7.023 l 0,-10.287 C 0.926,4.045 9.012,0.9 18.987,0.9 c 9.974,0 18.06,3.145 18.06,7.024 l 0,10.287 z" id="path22" style="fill:#231f20;fill-opacity:1;fill-rule:nonzero;stroke:#ffffff;stroke-width:0.41800001;stroke-linecap:butt;stroke-linejoin:miter;stroke-miterlimit:4;stroke-opacity:1;stroke-dasharray:none"/>
        <path d="m 37.047,18.211 c 0,-3.879 -8.086,-7.023 -18.06,-7.023 -9.975,0 -18.061,3.144 -18.061,7.023 l 0,-10.287 C 0.926,4.045 9.012,0.9 18.987,0.9 c 9.974,0 18.06,3.145 18.06,7.024 l 0,10.287 z" id="path24" style="fill:#000000;fill-opacity:1;fill-rule:nonzero;stroke:#ffffff;stroke-width:0.40000001;stroke-linecap:butt;stroke-linejoin:miter;stroke-miterlimit:4;stroke-opacity:1;stroke-dasharray:none"/>
        <path d="m 18.987,11.188 c 9.974,0 18.06,3.144 18.06,7.023 0,3.879 -8.086,7.023 -18.06,7.023 -9.975,0 -18.061,-3.144 -18.061,-7.023 0,-3.879 8.086,-7.023 18.061,-7.023 z" id="path26" style="fill:#000000;fill-opacity:1;fill-rule:nonzero;stroke:#ffffff;stroke-width:0.40000001;stroke-linecap:butt;stroke-linejoin:miter;stroke-miterlimit:4;stroke-opacity:1;stroke-dasharray:none"/>
        <path d="m 13.657,14.314 0,9.112 8.697,-4.405 -8.697,-4.707" id="path28" style="fill:#ffffff;fill-opacity:1;fill-rule:nonzero;stroke:none"/>
        <path d="m 22.499,23.166 2.704,0 0,-8.436 -2.704,0 0,8.436 z" id="path30" style="fill:#ffffff;fill-opacity:1;fill-rule:nonzero;stroke:none"/>
      </g>
    </g>
  </g>
</svg>