<?xml version="1.0" encoding="utf-8"?>
<svg version="1.1" width="55" height="28.75" id="svg2" xmlns="http://www.w3.org/2000/svg">
  <title>Small Hub</title>
  <defs id="defs6">
    <clipPath id="clipPath18">
      <path d="M 0,0 44,0 44,23 0,23 0,0 z" id="path20"/>
    </clipPath>
  </defs>
  <g transform="matrix(1.25,0,0,-1.25,0,28.75)" id="g10">
    <g id="g12"/>
    <g id="g14">
      <g clip-path="url(#clipPath18)" id="g16">
        <path d="m 38.356,11.9 4.969,10.187 -34.411,0 -7.736,-10.187 37.178,0 z" id="path22" style="fill:#000000;fill-opacity:1;fill-rule:nonzero;stroke:#ffffff;stroke-width:0.40000001;stroke-linecap:butt;stroke-linejoin:miter;stroke-miterlimit:4;stroke-opacity:1;stroke-dasharray:none"/>
        <path d="m 43.327,12.841 -0.002,9.246 -4.969,-10.187 0,-10.986 4.971,11.927 z" id="path24" style="fill:#000000;fill-opacity:1;fill-rule:nonzero;stroke:#ffffff;stroke-width:0.40000001;stroke-linecap:butt;stroke-linejoin:miter;stroke-miterlimit:4;stroke-opacity:1;stroke-dasharray:none"/>
        <path d="m 38.356,0.914 0,10.986 -37.183,0 0.013,-10.986 37.17,0 z" id="path26" style="fill:#000000;fill-opacity:1;fill-rule:nonzero;stroke:#ffffff;stroke-width:0.40000001;stroke-linecap:butt;stroke-linejoin:miter;stroke-miterlimit:4;stroke-opacity:1;stroke-dasharray:none"/>
        <path d="m 5.093,2.61 2.25,0 0,2.25 -2.25,0 0,-2.25 z" id="path28" style="fill:#000000;fill-opacity:1;fill-rule:nonzero;stroke:#ffffff;stroke-width:0.40000001;stroke-linecap:butt;stroke-linejoin:miter;stroke-miterlimit:4;stroke-opacity:1;stroke-dasharray:none"/>
        <path d="m 8.343,2.61 2.25,0 0,2.25 -2.25,0 0,-2.25 z" id="path30" style="fill:#000000;fill-opacity:1;fill-rule:nonzero;stroke:#ffffff;stroke-width:0.40000001;stroke-linecap:butt;stroke-linejoin:miter;stroke-miterlimit:4;stroke-opacity:1;stroke-dasharray:none"/>
        <path d="m 11.593,2.61 2.25,0 0,2.25 -2.25,0 0,-2.25 z" id="path32" style="fill:#000000;fill-opacity:1;fill-rule:nonzero;stroke:#ffffff;stroke-width:0.40000001;stroke-linecap:butt;stroke-linejoin:miter;stroke-miterlimit:4;stroke-opacity:1;stroke-dasharray:none"/>
        <path d="m 14.843,2.61 2.25,0 0,2.25 -2.25,0 0,-2.25 z" id="path34" style="fill:#000000;fill-opacity:1;fill-rule:nonzero;stroke:#ffffff;stroke-width:0.40000001;stroke-linecap:butt;stroke-linejoin:miter;stroke-miterlimit:4;stroke-opacity:1;stroke-dasharray:none"/>
        <path d="m 18.093,2.61 2.25,0 0,2.25 -2.25,0 0,-2.25 z" id="path36" style="fill:#000000;fill-opacity:1;fill-rule:nonzero;stroke:#ffffff;stroke-width:0.40000001;stroke-linecap:butt;stroke-linejoin:miter;stroke-miterlimit:4;stroke-opacity:1;stroke-dasharray:none"/>
        <path d="m 21.343,2.61 2.25,0 0,2.25 -2.25,0 0,-2.25 z" id="path38" style="fill:#000000;fill-opacity:1;fill-rule:nonzero;stroke:#ffffff;stroke-width:0.40000001;stroke-linecap:butt;stroke-linejoin:miter;stroke-miterlimit:4;stroke-opacity:1;stroke-dasharray:none"/>
        <path d="m 24.593,2.61 2.25,0 0,2.25 -2.25,0 0,-2.25 z" id="path40" style="fill:#000000;fill-opacity:1;fill-rule:nonzero;stroke:#ffffff;stroke-width:0.40000001;stroke-linecap:butt;stroke-linejoin:miter;stroke-miterlimit:4;stroke-opacity:1;stroke-dasharray:none"/>
        <path d="m 27.843,2.61 2.25,0 0,2.25 -2.25,0 0,-2.25 z" id="path42" style="fill:#000000;fill-opacity:1;fill-rule:nonzero;stroke:#ffffff;stroke-width:0.40000001;stroke-linecap:butt;stroke-linejoin:miter;stroke-miterlimit:4;stroke-opacity:1;stroke-dasharray:none"/>
        <path d="m 31.093,2.61 2.25,0 0,2.25 -2.25,0 0,-2.25 z" id="path44" style="fill:#000000;fill-opacity:1;fill-rule:nonzero;stroke:#ffffff;stroke-width:0.40000001;stroke-linecap:butt;stroke-linejoin:miter;stroke-miterlimit:4;stroke-opacity:1;stroke-dasharray:none"/>
        <path d="m 32.408,17.448 1.164,1.387 2.48,-1.573 -4.947,-1.379 1.025,1.118 -9.872,0 0.349,0.447 9.801,0" id="path46" style="fill:#ffffff;fill-opacity:1;fill-rule:nonzero;stroke:none"/>
        <path d="M 23.198,17.457 22.911,17 l -9.8,0 -1.04,-1.002 -2.657,1.273 5.342,1.68 -1.358,-1.494 9.8,0" id="path48" style="fill:#ffffff;fill-opacity:1;fill-rule:nonzero;stroke:none"/>
      </g>
    </g>
  </g>
</svg>