<?xml version="1.0" encoding="utf-8"?>
<svg version="1.1" width="26.4125" height="37.287498" id="svg2" xmlns="http://www.w3.org/2000/svg">
  <title>Standard Host</title>
  <defs id="defs6">
    <clipPath id="clipPath18">
      <path d="M 0,0 210,0 210,298 0,298 0,0 z" id="path20"/>
    </clipPath>
  </defs>
  <g transform="matrix(1.25,0,0,-1.25,0,37.2875)" id="g10">
    <g transform="scale(0.1,0.1)" id="g12">
      <g id="g14">
        <g clip-path="url(#clipPath18)" id="g16">
          <path d="m 2,2.00391 158.203,0 0,245.117 -158.203,0 0,-245.117 z" id="path22" style="fill:#231f20;fill-opacity:1;fill-rule:nonzero;stroke:none"/>
          <path d="M 160.203,247.121 2,247.121 2,2.00391 l 158.203,0" id="path24" style="fill:none;stroke:#ffffff;stroke-width:4;stroke-linecap:round;stroke-linejoin:round;stroke-miterlimit:4;stroke-opacity:1;stroke-dasharray:none"/>
          <path d="m 160.203,2.00391 49.145,49.14059 0,245.1175 -144.4535,0 L 2,247.121 l 158.203,0 0,-245.11709" id="path26" style="fill:#231f20;fill-opacity:1;fill-rule:nonzero;stroke:none"/>
          <path d="m 160.203,2.00391 49.145,49.14059 0,245.1175 -144.4535,0 L 2,247.121 l 158.203,0 0,-245.11709 z" id="path28" style="fill:none;stroke:#ffffff;stroke-width:4;stroke-linecap:round;stroke-linejoin:round;stroke-miterlimit:4;stroke-opacity:1;stroke-dasharray:none"/>
          <path d="m 160.203,247.121 49.145,49.141" id="path30" style="fill:#231f20;fill-opacity:1;fill-rule:nonzero;stroke:none"/>
          <path d="m 160.203,247.121 49.145,49.141" id="path32" style="fill:none;stroke:#ffffff;stroke-width:4;stroke-linecap:round;stroke-linejoin:round;stroke-miterlimit:4;stroke-opacity:1;stroke-dasharray:none"/>
          <path d="m 80.5469,247.121 0,-245.11709" id="path34" style="fill:#231f20;fill-opacity:1;fill-rule:nonzero;stroke:none"/>
          <path d="m 80.5469,247.121 0,-245.11709" id="path36" style="fill:none;stroke:#ffffff;stroke-width:4;stroke-linecap:round;stroke-linejoin:round;stroke-miterlimit:4;stroke-opacity:1;stroke-dasharray:none"/>
          <path d="m 83.0469,247.121 53.4571,49.141" id="path38" style="fill:#231f20;fill-opacity:1;fill-rule:nonzero;stroke:none"/>
          <path d="m 83.0469,247.121 53.4571,49.141" id="path40" style="fill:none;stroke:#ffffff;stroke-width:4;stroke-linecap:round;stroke-linejoin:round;stroke-miterlimit:4;stroke-opacity:1;stroke-dasharray:none"/>
          <path d="m 15.7031,192.258 53.125,0 0,32.5 -53.125,0 0,-32.5 z" id="path42" style="fill:none;stroke:#ffffff;stroke-width:4;stroke-linecap:round;stroke-linejoin:round;stroke-miterlimit:4;stroke-opacity:1;stroke-dasharray:none"/>
          <path d="m 91.8945,192.258 53.125,0 0,32.5 -53.125,0 0,-32.5 z" id="path44" style="fill:none;stroke:#ffffff;stroke-width:4;stroke-linecap:round;stroke-linejoin:round;stroke-miterlimit:4;stroke-opacity:1;stroke-dasharray:none"/>
          <path d="m 15.7031,72.2578 53.125,0 0,32.5 -53.125,0 0,-32.5 z" id="path46" style="fill:none;stroke:#ffffff;stroke-width:4;stroke-linecap:round;stroke-linejoin:round;stroke-miterlimit:4;stroke-opacity:1;stroke-dasharray:none"/>
          <path d="m 91.8945,72.2578 53.125,0 0,32.5 -53.125,0 0,-32.5 z" id="path48" style="fill:none;stroke:#ffffff;stroke-width:4;stroke-linecap:round;stroke-linejoin:round;stroke-miterlimit:4;stroke-opacity:1;stroke-dasharray:none"/>
          <path d="m 15.7031,19.7578 53.125,0 0,32.5 -53.125,0 0,-32.5 z" id="path50" style="fill:none;stroke:#ffffff;stroke-width:4;stroke-linecap:round;stroke-linejoin:round;stroke-miterlimit:4;stroke-opacity:1;stroke-dasharray:none"/>
          <path d="m 91.8945,19.7578 53.125,0 0,32.5 -53.125,0 0,-32.5 z" id="path52" style="fill:none;stroke:#ffffff;stroke-width:4;stroke-linecap:round;stroke-linejoin:round;stroke-miterlimit:4;stroke-opacity:1;stroke-dasharray:none"/>
        </g>
      </g>
    </g>
  </g>
</svg>