<?xml version="1.0" encoding="utf-8"?>
<svg version="1.1" width="46.25" height="37.5" id="svg2" xmlns="http://www.w3.org/2000/svg">
  <title>Workstation</title>
  <defs id="defs6">
    <clipPath id="clipPath18">
      <path d="M 0,0 37,0 37,30 0,30 0,0 z" id="path20"/>
    </clipPath>
  </defs>
  <g transform="matrix(1.25,0,0,-1.25,0,37.5)" id="g10">
    <g id="g12"/>
    <g id="g14">
      <g clip-path="url(#clipPath18)" id="g16">
        <path d="m 33.095,4.4 c 0.407,0.489 -1.816,1.152 0.687,1.563 1.598,0.263 6.439,3.108 -4.914,3.257" id="path22" style="fill:none;stroke:#000000;stroke-width:0.40000001;stroke-linecap:round;stroke-linejoin:round;stroke-miterlimit:4;stroke-opacity:1;stroke-dasharray:none"/>
        <path d="m 7.125,8.003 18.352,0 0,-2.771 -18.352,0 0,2.771 z" id="path24" style="fill:#000000;fill-opacity:1;fill-rule:nonzero;stroke:#ffffff;stroke-width:0.40000001;stroke-linecap:round;stroke-linejoin:round;stroke-miterlimit:4;stroke-opacity:1;stroke-dasharray:none"/>
        <path d="m 25.458,5.222 0,2.781 3.703,3.77 0,-2.849 -3.703,-3.702 z" id="path26" style="fill:#000000;fill-opacity:1;fill-rule:nonzero;stroke:#ffffff;stroke-width:0.40000001;stroke-linecap:round;stroke-linejoin:round;stroke-miterlimit:4;stroke-opacity:1;stroke-dasharray:none"/>
        <path d="m 7.125,8.003 18.352,0 0,-3.271 -18.352,0 0,3.271 z" id="path28" style="fill:#000000;fill-opacity:1;fill-rule:nonzero;stroke:#ffffff;stroke-width:0.40000001;stroke-linecap:round;stroke-linejoin:round;stroke-miterlimit:4;stroke-opacity:1;stroke-dasharray:none"/>
        <path d="m 25.458,4.722 0,3.281 3.703,3.77 0,-3.349 -3.703,-3.702 z" id="path30" style="fill:#000000;fill-opacity:1;fill-rule:nonzero;stroke:#ffffff;stroke-width:0.40000001;stroke-linecap:round;stroke-linejoin:round;stroke-miterlimit:4;stroke-opacity:1;stroke-dasharray:none"/>
        <path d="m 30.445,12.273 -2.593,-3.77 -22.838,0 3.675,3.77 21.756,0 z" id="path32" style="fill:#000000;fill-opacity:1;fill-rule:nonzero;stroke:#ffffff;stroke-width:0.40000001;stroke-linecap:round;stroke-linejoin:round;stroke-miterlimit:4;stroke-opacity:1;stroke-dasharray:none"/>
        <path d="m 4.958,8.503 21.851,0 0,-1.271 -21.851,0 0,1.271 z" id="path34" style="fill:#000000;fill-opacity:1;fill-rule:nonzero;stroke:#ffffff;stroke-width:0.40000001;stroke-linecap:round;stroke-linejoin:round;stroke-miterlimit:4;stroke-opacity:1;stroke-dasharray:none"/>
        <path d="m 26.791,7.222 0,1.281 3.703,3.77 0,-1.349 -3.703,-3.702 z" id="path36" style="fill:#000000;fill-opacity:1;fill-rule:nonzero;stroke:#ffffff;stroke-width:0.40000001;stroke-linecap:round;stroke-linejoin:round;stroke-miterlimit:4;stroke-opacity:1;stroke-dasharray:none"/>
        <path d="m 30.445,12.273 -2.593,-3.77 -22.838,0 3.675,3.77 21.756,0 z" id="path38" style="fill:#000000;fill-opacity:1;fill-rule:nonzero;stroke:#ffffff;stroke-width:0.40000001;stroke-linecap:round;stroke-linejoin:round;stroke-miterlimit:4;stroke-opacity:1;stroke-dasharray:none"/>
        <path d="m 4.958,8.503 21.851,0 0,-1.271 -21.851,0 0,1.271 z" id="path40" style="fill:#000000;fill-opacity:1;fill-rule:nonzero;stroke:#ffffff;stroke-width:0.40000001;stroke-linecap:round;stroke-linejoin:round;stroke-miterlimit:4;stroke-opacity:1;stroke-dasharray:none"/>
        <path d="m 26.791,7.222 0,1.281 3.703,3.77 0,-1.349 -3.703,-3.702 z" id="path42" style="fill:#000000;fill-opacity:1;fill-rule:nonzero;stroke:#ffffff;stroke-width:0.40000001;stroke-linecap:round;stroke-linejoin:round;stroke-miterlimit:4;stroke-opacity:1;stroke-dasharray:none"/>
        <path d="m 30.563,29.603 -19.732,0 -5.776,-1.358 22.858,0 2.65,1.358 z" id="path44" style="fill:#000000;fill-opacity:1;fill-rule:nonzero;stroke:#ffffff;stroke-width:0.40000001;stroke-linecap:round;stroke-linejoin:round;stroke-miterlimit:4;stroke-opacity:1;stroke-dasharray:none"/>
        <path d="m 26.926,10.104 -1.009,0.833 -18.542,0 0.979,-0.833 18.572,0 z" id="path46" style="fill:#000000;fill-opacity:1;fill-rule:nonzero;stroke:#ffffff;stroke-width:0.40000001;stroke-linecap:round;stroke-linejoin:round;stroke-miterlimit:4;stroke-opacity:1;stroke-dasharray:none"/>
        <path d="m 27.038,10.249 -1.277,0.855 4.726,2.5 -3.041,-3.01 -0.408,-0.345 z" id="path48" style="fill:#000000;fill-opacity:1;fill-rule:nonzero;stroke:#ffffff;stroke-width:0.40000001;stroke-linecap:round;stroke-linejoin:round;stroke-miterlimit:4;stroke-opacity:1;stroke-dasharray:none"/>
        <path d="m 27.913,28.245 0,-17.047 2.65,2.463 0,15.942 -2.65,-1.358 z" id="path50" style="fill:#000000;fill-opacity:1;fill-rule:nonzero;stroke:#ffffff;stroke-width:0.40000001;stroke-linecap:round;stroke-linejoin:round;stroke-miterlimit:4;stroke-opacity:1;stroke-dasharray:none"/>
        <path d="m 5.055,11.011 22.858,0 0,17.234 -22.858,0 0,-17.234 z" id="path52" style="fill:#000000;fill-opacity:1;fill-rule:nonzero;stroke:#ffffff;stroke-width:0.40000001;stroke-linecap:round;stroke-linejoin:round;stroke-miterlimit:4;stroke-opacity:1;stroke-dasharray:none"/>
        <path d="m 25.993,0.26 0,1.326 2.86,3.956 0,-2.422 -2.86,-2.86 z" id="path54" style="fill:#000000;fill-opacity:1;fill-rule:nonzero;stroke:#ffffff;stroke-width:0.40000001;stroke-linecap:round;stroke-linejoin:round;stroke-miterlimit:4;stroke-opacity:1;stroke-dasharray:none"/>
        <path d="m 0.779,1.566 25.213,0 0,-1.306 -25.213,0 0,1.306 z" id="path56" style="fill:#000000;fill-opacity:1;fill-rule:nonzero;stroke:#ffffff;stroke-width:0.40000001;stroke-linecap:round;stroke-linejoin:round;stroke-miterlimit:4;stroke-opacity:1;stroke-dasharray:none"/>
        <path d="m 33.163,1.306 1.672,3.344 -3.822,0 -1.672,-3.344 3.822,0 z" id="path58" style="fill:#000000;fill-opacity:1;fill-rule:nonzero;stroke:#ffffff;stroke-width:0.40000001;stroke-linecap:round;stroke-linejoin:round;stroke-miterlimit:4;stroke-opacity:1;stroke-dasharray:none"/>
        <path d="m 29.341,1.306 3.821,0 0,-1.075 -3.821,0 0,1.075 z" id="path60" style="fill:#000000;fill-opacity:1;fill-rule:nonzero;stroke:#ffffff;stroke-width:0.40000001;stroke-linecap:round;stroke-linejoin:round;stroke-miterlimit:4;stroke-opacity:1;stroke-dasharray:none"/>
        <path d="m 33.133,0.201 0.01,1.105 1.672,3.344 -0.01,-2.299 -1.672,-2.15 z" id="path62" style="fill:#000000;fill-opacity:1;fill-rule:nonzero;stroke:#ffffff;stroke-width:0.40000001;stroke-linecap:round;stroke-linejoin:round;stroke-miterlimit:4;stroke-opacity:1;stroke-dasharray:none"/>
        <path d="m 25.993,1.566 -25.133,0 2.86,3.976 25.133,0 -2.86,-3.976 z" id="path64" style="fill:#000000;fill-opacity:1;fill-rule:nonzero;stroke:#ffffff;stroke-width:0.40000001;stroke-linecap:round;stroke-linejoin:round;stroke-miterlimit:4;stroke-opacity:1;stroke-dasharray:none"/>
        <path d="m 8.375,26.445 16.054,0 c 1.045,0 1.892,-0.846 1.892,-1.891 l 0,-10.142 c 0,-1.045 -0.847,-1.892 -1.892,-1.892 l -16.054,0 c -1.044,0 -1.892,0.847 -1.892,1.892 l 0,10.142 c 0,1.045 0.848,1.891 1.892,1.891 z" id="path66" style="fill:#000000;fill-opacity:1;fill-rule:nonzero;stroke:#ffffff;stroke-width:0.40000001;stroke-linecap:round;stroke-linejoin:round;stroke-miterlimit:4;stroke-opacity:1;stroke-dasharray:none"/>
      </g>
    </g>
  </g>
</svg>