<?xml version="1.0" encoding="utf-8"?>
<svg version="1.1" width="62.5" height="32.5" id="svg2" xmlns="http://www.w3.org/2000/svg">
  <title>Workgroup Switch</title>
  <defs id="defs6">
    <clipPath id="clipPath18">
      <path d="M 0,0 50,0 50,26 0,26 0,0 z" id="path20"/>
    </clipPath>
  </defs>
  <g transform="matrix(1.25,0,0,-1.25,0,32.5)" id="g10">
    <g id="g12"/>
    <g id="g14">
      <g clip-path="url(#clipPath18)" id="g16">
        <path d="m 1.3,12.961 35.72,0 0,-11.595 -35.72,0 0,11.595 z" id="path22" style="fill:#000000;fill-opacity:1;fill-rule:nonzero;stroke:none"/>
        <path d="m 1.207,12.902 14.428,11.694 33.329,0 -11.977,-11.694 -35.78,0 z" id="path24" style="fill:#000000;fill-opacity:1;fill-rule:nonzero;stroke:#ffffff;stroke-width:0.40000001;stroke-linecap:butt;stroke-linejoin:miter;stroke-miterlimit:4;stroke-opacity:1;stroke-dasharray:none"/>
        <path d="M 37,1 48.931,13.892 48.94,24.575 37,12.919 37,1 z" id="path26" style="fill:#000000;fill-opacity:1;fill-rule:nonzero;stroke:#ffffff;stroke-width:0.40000001;stroke-linecap:butt;stroke-linejoin:miter;stroke-miterlimit:4;stroke-opacity:1;stroke-dasharray:none"/>
        <path d="m 22.145,15.945 -0.693,-0.568 -8.909,0 -0.888,-0.888 -2.416,1.051 4.856,1.389 -0.859,-0.984 8.909,0" id="path28" style="fill:#ffffff;fill-opacity:1;fill-rule:nonzero;stroke:none"/>
        <path d="m 29.145,20.32 -0.693,-0.568 -8.909,0 -0.888,-0.889 -2.416,1.052 4.856,1.389 -0.859,-0.984 8.909,0" id="path30" style="fill:#ffffff;fill-opacity:1;fill-rule:nonzero;stroke:none"/>
        <path d="m 23.716,17.491 0.693,0.568 8.909,0 0.888,0.888 2.415,-1.052 -4.855,-1.389 0.859,0.985 -8.909,0" id="path32" style="fill:#ffffff;fill-opacity:1;fill-rule:nonzero;stroke:none"/>
        <path d="m 28.341,21.866 0.693,0.568 8.909,0 0.888,0.888 2.415,-1.052 -4.855,-1.389 0.859,0.985 -8.909,0" id="path34" style="fill:#ffffff;fill-opacity:1;fill-rule:nonzero;stroke:none"/>
      </g>
    </g>
  </g>
</svg>
