<?xml version="1.0" encoding="utf-8"?>
<svg version="1.1" width="117.6817000000" height="63.2775000000" xmlns="http://www.w3.org/2000/svg">
  <title>Cloud</title>
  <g transform=" scale(1.000000) ">
    <path xmlns="http://www.w3.org/2000/svg" d="  M100.7452,30.1538 L100.6455,30.1538 C99.7027,20.8988 92.2012,13.6013 82.8682,12.9405 C82.6087,12.9188 82.3470,12.9128 82.0852,12.9030 C81.8865,12.8970 81.6922,12.8745 81.4942,12.8745 C81.4680,12.8745 81.4387,12.8775 81.4125,12.8775 C81.3817,12.8775 81.3540,12.8745 81.3202,12.8745 C79.2840,12.8745 77.3227,13.2015 75.4815,13.7873 C69.9412,5.9055 60.7860,0.7500 50.4210,0.7500 C50.3970,0.7500 50.3745,0.7515 50.3497,0.7530 C50.3167,0.7515 50.2830,0.7500 50.2500,0.7500 C49.8472,0.7500 49.4557,0.7928 49.0567,0.8100 C48.5857,0.8288 48.1132,0.8363 47.6460,0.8775 C46.8427,0.9465 46.0545,1.0583 45.2685,1.1858 C45.2122,1.1955 45.1575,1.2015 45.1027,1.2112 C31.0395,3.5978 20.2313,15.5483 19.6620,30.1538 L16.9365,30.1538 C7.9980,30.1538 0.7500,37.4018 0.7500,46.3395 C0.7500,55.2795 7.9980,62.5275 16.9365,62.5275 L20.8455,62.5275 L100.7467,62.5275 C109.6845,62.5275 116.9317,55.2795 116.9317,46.3395 C116.9302,37.4018 109.6830,30.1538 100.7452,30.1538 Z" style="fill-rule: evenodd; fill: #000000; "/>
  </g>
</svg>
