<?xml version="1.0" encoding="utf-8"?>
<svg version="1.1" width="29.1727000000" height="34.8255000000" xmlns="http://www.w3.org/2000/svg">
  <title>Database</title>
  <g transform=" scale(1.000000) ">
    <path xmlns="http://www.w3.org/2000/svg" d="  M0.0000,9.8363 L29.1727,9.8363 L29.1727,0.0000 L0.0000,0.0000 L0.0000,9.8363 Z" style="fill-rule: evenodd; fill: #000000; "/>
    <path xmlns="http://www.w3.org/2000/svg" d="  M0.0000,9.8363 L29.1727,9.8363 L29.1727,0.0000 L0.0000,0.0000 L0.0000,9.8363 Z" style="stroke-width: 1.1250; stroke: #000000; stroke-dasharray: none; stroke-linecap: butt; stroke-linejoin: miter; fill: none; "/>
    <path xmlns="http://www.w3.org/2000/svg" d="  M0.0000,22.3312 L29.1727,22.3312 L29.1727,12.4965 L0.0000,12.4965 L0.0000,22.3312 Z" style="fill-rule: evenodd; fill: #000000; "/>
    <path xmlns="http://www.w3.org/2000/svg" d="  M0.0000,22.3312 L29.1727,22.3312 L29.1727,12.4965 L0.0000,12.4965 L0.0000,22.3312 Z" style="stroke-width: 1.1250; stroke: #000000; stroke-dasharray: none; stroke-linecap: butt; stroke-linejoin: miter; fill: none; "/>
    <path xmlns="http://www.w3.org/2000/svg" d="  M0.0000,34.8255 L29.1727,34.8255 L29.1727,24.9930 L0.0000,24.9930 L0.0000,34.8255 Z" style="fill-rule: evenodd; fill: #000000; "/>
    <path xmlns="http://www.w3.org/2000/svg" d="  M0.0000,34.8255 L29.1727,34.8255 L29.1727,24.9930 L0.0000,24.9930 L0.0000,34.8255 Z" style="stroke-width: 1.1250; stroke: #000000; stroke-dasharray: none; stroke-linecap: butt; stroke-linejoin: miter; fill: none; "/>
  </g>
</svg>
