<?xml version="1.0" encoding="utf-8"?>
<svg version="1.1" width="36.5438000000" height="36.5460000000" xmlns="http://www.w3.org/2000/svg">
  <title>Generic Router</title>
  <g transform=" scale(1.000000) ">
    <path xmlns="http://www.w3.org/2000/svg" d="  M18.2722,36.5460 C28.3357,36.5460 36.5438,28.3373 36.5438,18.2737 C36.5438,8.2095 28.3357,0.0000 18.2722,0.0000 C8.2072,0.0000 0.0000,8.2095 0.0000,18.2737 C0.0000,28.3365 8.2072,36.5460 18.2722,36.5460 Z" style="fill-rule: evenodd; fill: #000000; "/>
    <path xmlns="http://www.w3.org/2000/svg" d="  M18.2722,36.5460 C28.3357,36.5460 36.5438,28.3373 36.5438,18.2737 C36.5438,8.2095 28.3357,0.0000 18.2722,0.0000 C8.2072,0.0000 0.0000,8.2095 0.0000,18.2737 C0.0000,28.3365 8.2072,36.5460 18.2722,36.5460 Z" style="stroke-width: 1.1250; stroke: #ffffff; stroke-dasharray: none; stroke-linecap: butt; stroke-linejoin: miter; fill: none; "/>
    <path xmlns="http://www.w3.org/2000/svg" d="  M16.4647,17.0835 L15.4725,17.0835 L4.1130,17.0835 L4.1130,14.3475 L14.1045,14.3475 L14.1045,8.5170 L12.6397,8.5170 L14.0655,6.0472 L15.1680,4.1415 L15.4920,3.5797 L16.9185,6.0472 L18.3413,8.5170 L17.6925,8.5170 L16.8390,8.5170 L16.8390,15.7147 L16.8390,17.0835 L16.4647,17.0835 Z M28.0140,17.9707 L28.0140,17.0835 L20.9085,17.0835 L19.5412,17.0835 L19.5412,16.7085 L19.5412,15.7147 L19.5412,4.4385 L22.2773,4.4385 L22.2773,14.3460 L28.0133,14.3460 L28.0148,12.9172 L30.4845,14.3445 L32.3903,15.4440 L32.2028,15.7703 L32.3903,15.4440 L32.9513,15.7687 L30.4845,17.1953 L28.0133,18.6180 L28.0133,17.9707 L28.0140,17.9707 Z M14.4802,32.5920 L14.4802,32.2170 L14.8552,32.2170 L14.4802,32.2170 L14.4802,32.5920 L14.1052,32.5920 L14.1052,22.6815 L8.5267,22.6815 L8.5267,24.1792 L6.0585,22.7535 L3.5902,21.3293 L6.0585,19.9027 L8.5267,18.4785 L8.5267,19.1280 L8.5267,19.9478 L15.4725,19.9478 L16.8397,19.9478 L16.8397,20.3227 L16.8397,21.3150 L16.8397,32.5927 L14.4802,32.5927 L14.4802,32.5920 Z M20.9070,32.1922 L21.2317,32.0048 L20.9070,32.1922 Z M19.4812,30.4740 L18.0577,28.0050 L18.7065,28.0050 L19.5412,28.0035 L19.5412,21.3143 L19.5412,19.9470 L19.9162,19.9470 L20.9085,19.9470 L32.2665,19.9470 L32.2665,22.6815 L22.2780,22.6815 L22.2780,28.0050 L23.7592,28.0050 L22.3327,30.4740 L21.2325,32.3798 L20.9077,32.9430 L19.4812,30.4740 Z" style="fill-rule: evenodd; fill: #ffffff; "/>
  </g>
</svg>
