<?xml version="1.0" encoding="utf-8"?>
<svg version="1.1" width="42.0765000000" height="42.0757000000" xmlns="http://www.w3.org/2000/svg">
  <title>L2/L3 Switch</title>
  <g transform=" scale(1.000000) ">
    <path xmlns="http://www.w3.org/2000/svg" d="  M0.0000,42.0757 L42.0765,42.0757 L42.0765,0.0000 L0.0000,0.0000 L0.0000,42.0757 Z" style="fill-rule: evenodd; fill: #000000; "/>
    <path xmlns="http://www.w3.org/2000/svg" d="  M0.0000,42.0757 L42.0765,42.0757 L42.0765,0.0000 L0.0000,0.0000 L0.0000,42.0757 Z" style="stroke-width: 1.1250; stroke: #ffffff; stroke-dasharray: none; stroke-linecap: butt; stroke-linejoin: miter; fill: none; "/>
    <path xmlns="http://www.w3.org/2000/svg" d="  M21.0375,37.4835 C30.0952,37.4835 37.4835,30.0945 37.4835,21.0382 C37.4835,11.9805 30.0945,4.5930 21.0375,4.5930 C11.9790,4.5930 4.5915,11.9805 4.5915,21.0382 C4.5922,30.0945 11.9797,37.4835 21.0375,37.4835 Z" style="fill-rule: evenodd; fill: #000000; "/>
    <path xmlns="http://www.w3.org/2000/svg" d="  M21.0375,37.4835 C30.0952,37.4835 37.4835,30.0945 37.4835,21.0382 C37.4835,11.9805 30.0945,4.5930 21.0375,4.5930 C11.9790,4.5930 4.5915,11.9805 4.5915,21.0382 C4.5922,30.0945 11.9797,37.4835 21.0375,37.4835 Z" style="stroke-width: 1.1250; stroke: #ffffff; stroke-dasharray: none; stroke-linecap: butt; stroke-linejoin: miter; fill: none; "/>
    <path xmlns="http://www.w3.org/2000/svg" d="  M19.4122,19.9673 L18.5182,19.9673 L8.2957,19.9673 L8.2957,17.5043 L17.2882,17.5043 L17.2882,12.2573 L15.9697,12.2573 L17.2545,10.0350 L18.2445,8.3198 L18.5362,7.8143 L19.8210,10.0350 L21.1028,12.2573 L20.5178,12.2573 L19.7505,12.2573 L19.7505,18.7358 L19.7505,19.9680 L19.4122,19.9680 L19.4122,19.9673 Z M29.8065,20.7660 L29.8065,19.9680 L23.4127,19.9680 L22.1790,19.9680 L22.1790,19.6305 L22.1790,18.7365 L22.1790,8.5883 L24.6427,8.5883 L24.6427,17.5043 L29.8065,17.5043 L29.8065,16.2188 L32.0302,17.5043 L33.7440,18.4935 L33.5752,18.7875 L33.7440,18.4935 L34.2510,18.7860 L32.0302,20.0693 L29.8065,21.3510 L29.8065,20.7660 Z M17.6250,33.9255 L17.6250,33.5880 L17.9617,33.5880 L17.6250,33.5880 L17.6250,33.9255 L17.2882,33.9255 L17.2882,25.0058 L12.2677,25.0058 L12.2677,26.3550 L10.0462,25.0703 L7.8255,23.7885 L10.0462,22.5038 L12.2677,21.2220 L12.2677,21.8070 L12.2677,22.5443 L18.5182,22.5443 L19.7505,22.5443 L19.7505,22.8810 L19.7505,23.7743 L19.7505,33.9240 L17.6250,33.9240 L17.6250,33.9255 Z M23.4112,33.5648 L23.7030,33.3960 L23.4112,33.5648 Z M22.1265,32.0190 L20.8447,29.7968 L21.4275,29.7968 L22.1790,29.7960 L22.1790,23.7758 L22.1790,22.5450 L22.5172,22.5450 L23.4120,22.5450 L33.6322,22.5450 L33.6322,25.0058 L24.6427,25.0058 L24.6427,29.7968 L25.9755,29.7968 L24.6922,32.0190 L23.7022,33.7343 L23.4105,34.2413 L22.1265,32.0190 Z" style="fill-rule: evenodd; fill: #ffffff; "/>
  </g>
</svg>
