<?xml version="1.0" encoding="utf-8"?>
<svg height="32.0" width="32.0" viewBox="0 0 280.606 280.606" xmlns="http://www.w3.org/2000/svg">
    <title>CCTV 2</title>
    <g transform="scale(1.000000) ">
        <path d="m278.161,191.032l-149.199-149.199c-3.89-3.89-10.253-3.89-14.143,0l-55.861,55.861c-3.89,3.89-3.89,10.411 0,14.302l14.098,14.256h-40.056v-23.317c0-5.5-4.44-9.683-9.94-9.683h-13c-5.5,0-10.06,4.183-10.06,9.683v79c0,5.5 4.56,10.317 10.06,10.317h13c5.5,0 9.94-4.817 9.94-10.317v-22.683h73.056l78.767,78.607c3.89,3.891 11.097,4.979 16.016,2.52l75.449-37.764c4.919-2.459 5.763-7.693 1.873-11.583zm-162.104-127.81c3.223-3.222 8.445-3.222 11.668-7.10543e-15 3.222,3.223 3.222,8.445 0,11.667-3.223,3.223-8.445,3.223-11.668,0.001-3.222-3.222-3.222-8.445 1.42109e-14-11.668zm53.349,135.373l-94.007-94.007 11.313-11.313 94.007,94.007-11.313,11.313z"/>
    </g>
</svg>
