<?xml version="1.0" encoding="utf-8"?>
<svg height="32.0" viewBox="-30 -20 640 640.00107" width="32.0" xmlns="http://www.w3.org/2000/svg">
    <title>CCTV Wi-Fi</title>
    <g transform=" scale(1.000000) ">
        <path d="m204.648438 106.367188c-3.421876 1.195312-5.925782 4.144531-6.550782 7.714843-.625 3.574219.730469 7.199219 3.542969 9.484375s6.640625 2.871094 10.007813 1.527344c17.78125-6.675781 37.386718-6.675781 55.167968 0 5.132813 1.792969 10.753906-.84375 12.660156-5.941406 1.902344-5.089844-.609374-10.773438-5.664062-12.785156-22.300781-8.351563-46.863281-8.351563-69.164062 0zm0 0"/>
        <path d="m299.039062 84.734375c4.605469-.007813 8.609376-3.15625 9.703126-7.628906 1.09375-4.46875-1.011719-9.113281-5.097657-11.242188-40.371093-20.914062-88.394531-20.914062-128.769531 0-3.300781 1.566407-5.488281 4.816407-5.691406 8.460938-.210938 3.652343 1.585937 7.121093 4.6875 9.054687 3.097656 1.933594 7.007812 2.027344 10.191406.234375 34.617188-17.925781 75.777344-17.925781 110.394531 0 1.417969.734375 2.988281 1.121094 4.582031 1.121094zm0 0"/>
        <path d="m156.566406 43.203125c50.785156-30.953125 114.605469-30.953125 165.386719 0 4.695313 2.621094 10.625 1.058594 13.425781-3.535156 2.789063-4.597657 1.441406-10.582031-3.046875-13.539063-57.15625-34.839844-128.980469-34.839844-186.140625 0-4.722656 2.863282-6.226562 9.011719-3.359375 13.734375 2.863281 4.722657 9.015625 6.226563 13.734375 3.359375zm0 0"/>
        <path d="m569.1875 140.101562h-59.984375c-5.523437 0-10 4.476563-10 9.996094v238.449219l-114.699219 42.1875c-10.730468-12.367187-26.066406-19.796875-42.425781-20.554687l-15.355469-42.539063-65.769531 23.816406 21.4375 59.578125c-9.691406 28.777344 3.679687 60.257813 31.121094 73.269532 27.445312 13.011718 60.28125 3.4375 76.429687-22.285157l109.261719-38.886719v126.871094c0 5.519532 4.476563 9.996094 10 9.996094h59.984375c5.523438 0 10-4.476562 10-9.996094v-439.90625c0-5.519531-4.476562-9.996094-10-9.996094zm0 0"/>
        <path d="m444.414062 303.464844c5.191407-1.878906 7.875-7.605469 6-12.796875l-21.261718-58.535157c-11.773438 12.800782-26.417969 22.613282-42.730469 28.621094l-244.402344 88.980469c-11.953125 4.390625-24.59375 6.628906-37.328125 6.609375-4.59375-.03125-9.183594-.367188-13.738281-1l17.835937 48.988281 3.398438 9.402344c.9375 2.492187 2.796875 4.535156 5.199219 5.695313 1.324219.589843 2.753906.898437 4.199219.898437 1.160156.003906 2.3125-.199219 3.402343-.601563zm0 0"/>
        <path d="m68.066406 349.980469c-1.375-.488281-2.726562-.847657-4.105468-1.402344-15.960938-6.28125-30.203126-16.269531-41.542969-29.136719l-16.496094 6c-5.1875 1.878906-7.875 7.605469-6 12.796875l27.386719 75.203125c.933594 2.5 2.796875 4.539063 5.199218 5.695313 1.320313.597656 2.75.902343 4.199219.902343 1.15625.007813 2.308594-.199218 3.398438-.597656l37.59375-13.699218c5.1875-1.878907 7.867187-7.605469 5.996093-12.796876zm0 0"/>
        <path d="m135.1875 330.957031 244.34375-88.980469c14.878906-5.386718 28.0625-14.632812 38.191406-26.792968 13.546875-16.214844 20.976563-36.664063 20.996094-57.785156.027344-10.472657-1.800781-20.867188-5.398438-30.699219-1.878906-5.183594-7.605468-7.867188-12.796874-5.992188l-394.613282 143.566407c-5.191406 1.878906-7.875 7.605468-6 12.796874 8.742188 24.28125 27.550782 43.601563 51.589844 52.988282 5.550781 2.285156 11.359375 3.898437 17.296875 4.800781 5.234375.996094 10.5625 1.496094 15.894531 1.496094 10.402344 0 20.722656-1.824219 30.496094-5.398438zm0 0"/>
    </g>
</svg>
