<?xml version="1.0" encoding="utf-8"?>
<svg height="32.0" viewBox="0 0 71.861 71.861" width="32.0" xmlns="http://www.w3.org/2000/svg">
    <title>CCTV in a square</title>
    <g transform="scale(1.000000) ">
        <path d="M39.601,27.518l-7.434,2.326c0.048,0.157,0.108,0.314,0.174,0.42c0.048,0.017,0.14,0.036,0.21,0.051
			c0.438,0.093,1.169,0.25,1.574,1.241c0.423,1.036,1.247,2.269,2.773,2.269c0.302,0,0.624-0.048,0.956-0.143
			c0.743-0.212,1.647-1.618,1.368-3.124c-0.25-1.358,0.232-2.12,0.597-2.483L39.601,27.518z M36.908,33.165
			c-0.961,0-1.743-0.783-1.743-1.744c0-0.962,0.782-1.744,1.743-1.744c0.963,0,1.744,0.782,1.744,1.744
			C38.653,32.383,37.87,33.165,36.908,33.165z"/>
        <path d="M24.682,19.764c0.442-0.136,0.885-0.205,1.316-0.205c1.953,0,3.064,1.385,3.111,1.443l1.607,2.393
			c1.518-0.462,7.8-2.382,11.86-3.753c0.795-0.268,1.337-0.761,1.658-1.507c0.989-2.307-0.453-6.187-0.956-7.4l-18.815,5.354
			l10.751-2.597c0.254-0.062,0.515,0.096,0.576,0.353c0.063,0.256-0.096,0.515-0.352,0.576l-14.936,3.607
			c-0.037,0.009-0.074,0.013-0.112,0.013c-0.216,0-0.411-0.147-0.464-0.366c-0.026-0.108-0.007-0.213,0.036-0.307l-6.714,1.911
			l2.504,3.055C17.094,21.958,22.543,20.422,24.682,19.764z"/>
        <path d="M30.144,26.516c-0.177,0.025-0.347-0.048-0.452-0.189l-2.53-3.417c-0.047-0.061-0.076-0.134-0.089-0.209
			c-0.016-0.076-0.145-0.506-0.899-0.506c-0.374,0-0.835,0.104-1.369,0.308c-2.034,0.774-4.346,1.445-5.327,1.719l1.42,4.599
			c0.066,0.087,0.43,0.493,1.51,0.494c0.544,0,1.186-0.105,1.904-0.313c2.961-0.854,17.433-5.093,20.133-5.885l-0.335-1.447
			C42.112,22.618,35.144,25.802,30.144,26.516z"/>
        <circle cx="36.908" cy="31.422" r="0.788"/>
        <polygon points="15.988,24.645 17.865,29.493 18.302,29.274 16.89,24.495 		"/>
        <path d="M38.456,38.066v-2.078c-0.498,0.232-1.009,0.35-1.523,0.35c-0.576,0-1.068-0.15-1.443-0.322v5.666h13.824
			c0.259,0,0.471,0.207,0.479,0.467l0.051,2.021h3.17l0,0v-8.537h-3.094v2.433c0,0.264-0.214,0.478-0.479,0.478H38.936
			C38.671,38.544,38.456,38.33,38.456,38.066z"/>
        <path d="M67.546,0H4.316c-2.16,0-3.917,1.757-3.917,3.917v64.027c0,2.159,1.757,3.917,3.917,3.917h63.229
			c2.16,0,3.916-1.758,3.916-3.917V3.918C71.462,1.758,69.705,0,67.546,0z M48.96,35.156c0-0.265,0.215-0.478,0.479-0.478h4.051
			c0.266,0,0.479,0.213,0.479,0.478v9.492c0,0.264-0.215,0.478-0.479,0.478h-4.112c-0.26,0-0.472-0.208-0.479-0.466l-0.051-2.023
			H35.01c-0.265,0-0.478-0.213-0.478-0.478v-7.003c0-0.189,0.112-0.362,0.286-0.438c0.175-0.076,0.376-0.042,0.517,0.087
			c0.004,0.005,0.648,0.576,1.597,0.576c0.574,0,1.152-0.206,1.724-0.613c0.146-0.105,0.337-0.12,0.497-0.037
			c0.159,0.082,0.26,0.246,0.26,0.425v2.434h9.549v-2.434H48.96z M40.163,30.386c0.365,1.975-0.779,3.854-2.048,4.216
			c-0.418,0.119-0.828,0.18-1.219,0.18c-1.604,0-2.904-1.017-3.658-2.863c-0.215-0.523-0.526-0.59-0.89-0.668
			c-0.267-0.057-0.57-0.122-0.767-0.398c-0.305-0.431-0.445-1.163-0.46-1.244c-0.043-0.238,0.098-0.471,0.328-0.542l8.29-2.595
			c0.242-0.075,0.497,0.05,0.588,0.283l0.508,1.297c0.088,0.227-0.009,0.482-0.223,0.596C40.593,28.661,39.921,29.073,40.163,30.386
			z M11.963,18.875c0.048-0.153,0.171-0.272,0.325-0.316l31.135-8.86c0.227-0.064,0.467,0.046,0.565,0.259
			c0.101,0.22,2.474,5.42,1.125,8.553c-0.428,0.996-1.178,1.682-2.229,2.036c-4.635,1.566-12.151,3.842-12.229,3.865
			c-0.044,0.014-0.091,0.021-0.138,0.021c-0.156,0-0.307-0.077-0.396-0.211l-1.783-2.657c-0.013-0.013-0.861-1.049-2.339-1.049
			c-0.336,0-0.685,0.055-1.036,0.163c-2.445,0.752-9.182,2.642-9.251,2.661c-0.182,0.053-0.377-0.01-0.499-0.158l-3.164-3.859
			C11.947,19.196,11.916,19.029,11.963,18.875z M17.688,23.819l1.645,5.568c0.065,0.222-0.037,0.459-0.245,0.563l-1.265,0.633
			c-0.066,0.034-0.141,0.05-0.214,0.05c-0.059,0-0.116-0.011-0.172-0.032c-0.125-0.048-0.225-0.147-0.273-0.272l-2.278-5.885
			c-0.052-0.134-0.04-0.284,0.03-0.409c0.071-0.125,0.195-0.211,0.337-0.234l1.898-0.316C17.384,23.441,17.618,23.587,17.688,23.819
			z M21.145,63.575c1.026,0,2.072-0.212,2.75-0.542l0.349,1.336c-0.62,0.311-1.859,0.62-3.447,0.62c-3.68,0-6.449-2.324-6.449-6.604
			c0-4.086,2.77-6.855,6.816-6.855c1.627,0,2.654,0.349,3.1,0.581l-0.407,1.375c-0.639-0.31-1.549-0.542-2.634-0.542
			c-3.06,0-5.094,1.956-5.094,5.384C16.127,61.522,17.967,63.575,21.145,63.575z M22.406,30.268c-1.806,0-2.324-0.932-2.377-1.038
			c-0.013-0.023-0.021-0.047-0.029-0.073l-1.583-5.126c-0.038-0.124-0.024-0.259,0.038-0.372c0.063-0.114,0.17-0.197,0.296-0.23
			c0.03-0.008,3.108-0.829,5.711-1.82c0.645-0.245,1.22-0.37,1.71-0.37c1.177,0,1.68,0.712,1.814,1.181l2.301,3.107
			c5.614-0.896,13.857-4.934,13.94-4.976c0.132-0.064,0.285-0.065,0.417-0.003c0.132,0.063,0.229,0.182,0.261,0.325l0.568,2.468
			c0.058,0.247-0.088,0.495-0.329,0.566c-0.173,0.05-17.314,5.074-20.568,6.012C23.771,30.151,23.042,30.268,22.406,30.268z
			 M31.969,63.575c1.027,0,2.073-0.212,2.75-0.542l0.349,1.336c-0.619,0.311-1.858,0.62-3.446,0.62
			c-3.681,0-6.449-2.324-6.449-6.604c0-4.086,2.769-6.855,6.816-6.855c1.627,0,2.653,0.349,3.1,0.581l-0.408,1.375
			c-0.638-0.31-1.549-0.542-2.633-0.542c-3.061,0-5.094,1.956-5.094,5.384C26.953,61.522,28.793,63.575,31.969,63.575z
			 M45.896,53.176h-3.99v11.621h-1.704V53.176h-3.97v-1.434h9.664V53.176z M52.847,64.795h-1.859l-4.26-13.054h1.82l2.032,6.431
			c0.563,1.762,1.046,3.351,1.396,4.879h0.039c0.367-1.51,0.91-3.156,1.49-4.86l2.209-6.449h1.801L52.847,64.795z"/>
    </g>
</svg>
