<?xml version="1.0" encoding="utf-8"?>
<svg height="32.0" viewBox="0 -136 448 448" width="32.0" xmlns="http://www.w3.org/2000/svg">
    <title>Hub</title>
    <g transform="scale(1.000000) ">
        <path d="m168 88h16v-8h8v-24h-32v24h8zm0 0"/>
        <path d="m352 88h16v-8h8v-24h-32v24h8zm0 0"/>
        <path d="m264 88h16v-8h8v-24h-32v24h8zm0 0"/>
        <path d="m80 88h16v-8h8v-24h-32v24h8zm0 0"/>
        <path d="m376 160h16v16h-16zm0 0"/>
        <path d="m56 160h16v16h-16zm0 0"/>
        <path d="m32 112h384v-80h-384zm296-64c0-4.417969 3.582031-8 8-8h48c4.417969 0 8 3.582031 8 8v32c0 4.417969-3.582031 8-8 8v8c0 4.417969-3.582031 8-8 8h-32c-4.417969 0-8-3.582031-8-8v-8c-4.417969 0-8-3.582031-8-8zm-88 0c0-4.417969 3.582031-8 8-8h48c4.417969 0 8 3.582031 8 8v32c0 4.417969-3.582031 8-8 8v8c0 4.417969-3.582031 8-8 8h-32c-4.417969 0-8-3.582031-8-8v-8c-4.417969 0-8-3.582031-8-8zm-96 0c0-4.417969 3.582031-8 8-8h48c4.417969 0 8 3.582031 8 8v32c0 4.417969-3.582031 8-8 8v8c0 4.417969-3.582031 8-8 8h-32c-4.417969 0-8-3.582031-8-8v-8c-4.417969 0-8-3.582031-8-8zm-88 0c0-4.417969 3.582031-8 8-8h48c4.417969 0 8 3.582031 8 8v32c0 4.417969-3.582031 8-8 8v8c0 4.417969-3.582031 8-8 8h-32c-4.417969 0-8-3.582031-8-8v-8c-4.417969 0-8-3.582031-8-8zm0 0"/>
        <path d="m432 0h-416c-8.835938 0-16 7.164062-16 16v112c0 8.835938 7.164062 16 16 16h416c8.835938 0 16-7.164062 16-16v-112c0-8.835938-7.164062-16-16-16zm0 120c0 4.417969-3.582031 8-8 8h-400c-4.417969 0-8-3.582031-8-8v-96c0-4.417969 3.582031-8 8-8h400c4.417969 0 8 3.582031 8 8zm0 0"/>
    </g>
</svg>
