<?xml version="1.0" encoding="utf-8"?>
<svg height="32.0" viewBox="0 0 510 510" width="32.0" xmlns="http://www.w3.org/2000/svg">
    <title>Surveillance 1</title>
    <g transform="scale(1.000000) ">
        <path d="m338.99 321.42c0 .26-.01.52-.02.77v.01c-.42 45.95-37.92 83.21-83.97 83.21-46.31 0-83.98-37.68-83.98-83.99v-122.82h-120.14v49.14c0 112.55 91.57 204.12 204.12 204.12s204.12-91.57 204.12-204.12v-49.14h-120.13z"/>
        <path d="m308.99 257.15v-58.55h-107.97v58.54c14.61-12.29 33.44-19.7 53.98-19.7s39.38 7.41 53.99 19.71z"/>
        <path d="m255 267.44c-29.8 0-53.98 24.24-53.98 53.98s24.18 53.99 53.98 53.99 53.98-24.25 53.98-53.99-24.18-53.98-53.98-53.98zm15 54.32c0 8.28-6.73 15-15 15s-15-6.72-15-15v-.68c0-8.28 6.73-15 15-15s15 6.72 15 15z"/>
        <path d="m500 58.14h-490c-5.52 0-10 4.48-10 10v81.71c0 10.36 8.39 18.75 18.75 18.75h472.5c10.36 0 18.75-8.39 18.75-18.75v-81.71c0-5.52-4.48-10-10-10zm-392.94 70.23h-4.5c-8.28 0-15-6.72-15-15 0-8.29 6.72-15 15-15h4.5c8.29 0 15 6.71 15 15 0 8.28-6.71 15-15 15zm300.38 0h-223.88c-8.28 0-15-6.72-15-15 0-8.29 6.72-15 15-15h223.88c8.28 0 15 6.71 15 15 0 8.28-6.72 15-15 15z"/>
    </g>
</svg>
