<?xml version="1.0" encoding="utf-8"?>
<svg height="32.0" viewBox="0 0 510 510" width="32.0" xmlns="http://www.w3.org/2000/svg">
    <title>Surveillance 5</title>
    <g transform="scale(1.000000) ">
        <path d="M501.333,64H10.667C4.771,64,0,68.771,0,74.667v74.667C0,172.865,19.135,192,42.667,192v42.667
				C42.667,352.302,138.365,448,256,448s213.333-95.698,213.333-213.333V192C492.865,192,512,172.865,512,149.333V74.667
				C512,68.771,507.229,64,501.333,64z M256,362.667c-47.052,0-85.333-38.281-85.333-85.333C170.667,230.281,208.948,192,256,192
				s85.333,38.281,85.333,85.333C341.333,324.385,303.052,362.667,256,362.667z M394.667,234.667
				c-5.891,0-10.667-4.776-10.667-10.667c0-5.892,4.776-10.667,10.667-10.667s10.667,4.775,10.667,10.667
				C405.333,229.891,400.557,234.667,394.667,234.667z"/>
        <path d="M256,213.333c-35.292,0-64,28.708-64,64c0,35.292,28.708,64,64,64s64-28.708,64-64
				C320,242.042,291.292,213.333,256,213.333z M256,256c-11.76,0-21.333,9.573-21.333,21.333c0,5.896-4.771,10.667-10.667,10.667
				s-10.667-4.771-10.667-10.667c0-23.531,19.135-42.667,42.667-42.667c5.896,0,10.667,4.771,10.667,10.667
				C266.667,251.229,261.896,256,256,256z"/>
    </g>
</svg>
