<?xml version="1.0" encoding="utf-8"?>
<svg height="32.0" viewBox="0 0 512.203 512.203" width="32.0" xmlns="http://www.w3.org/2000/svg">
    <title>Surveillance 2</title>
    <g transform="scale(1.000000) ">
        <path id="XMLID_1467_"
              d="m396.573 64.661c-3.888 0-7.05 3.163-7.05 7.05 0 3.888 3.162 7.05 7.05 7.05s7.05-3.163 7.05-7.05-3.162-7.05-7.05-7.05z"/>
        <path id="XMLID_1470_"
              d="m512.203 138.996v-134.567h-512.203v134.567zm-398.963-52.285h-38.667v-30h38.667zm74 0h-38.667v-30h38.667zm74 0h-38.667v-30h38.667zm135.333 22.05c-20.43 0-37.05-16.621-37.05-37.05s16.62-37.05 37.05-37.05 37.05 16.621 37.05 37.05c0 20.43-16.62 37.05-37.05 37.05z"/>
        <path id="XMLID_1476_"
              d="m256.102 417.347c49.296 0 89.401-40.105 89.401-89.401s-40.105-89.401-89.401-89.401-89.402 40.105-89.402 89.401 40.106 89.401 89.402 89.401zm0-154.332c35.803 0 64.931 29.128 64.931 64.931s-29.128 64.931-64.931 64.931-64.931-29.128-64.931-64.931 29.128-64.931 64.931-64.931z"/>
        <circle id="XMLID_1477_" cx="256.102" cy="327.946" r="34.931"/>
        <path id="XMLID_1480_"
              d="m0 168.996v82.677c0 68.407 26.64 132.72 75.01 181.091 48.372 48.371 112.685 75.01 181.092 75.01s132.72-26.639 181.092-75.01c48.37-48.371 75.01-112.684 75.01-181.091v-82.677zm256.102 39.549c65.838 0 119.401 53.563 119.401 119.401s-53.563 119.401-119.401 119.401-119.402-53.563-119.402-119.401 53.564-119.401 119.402-119.401z"/>
    </g>
</svg>
